<svg width="866" height="659" viewBox="0 0 866 659" fill="none" xmlns="http://www.w3.org/2000/svg">
<g id="heroBgImg (2) 1" clip-path="url(#clip0_0_1)">
<g id="Cloud1">
<path id="Vector" d="M307.917 153.234C307.558 153.234 307.212 153.098 306.949 152.852C306.687 152.607 306.527 152.272 306.502 151.913C305.573 139.292 299.912 127.486 290.652 118.86C281.392 110.233 269.216 105.421 256.561 105.387C255.046 105.387 253.455 105.464 251.832 105.616C251.56 105.641 251.287 105.588 251.045 105.463C250.803 105.337 250.602 105.144 250.466 104.908C244.653 94.7321 235.972 86.494 225.506 81.2213C215.04 75.9486 203.253 73.8749 191.616 75.259C179.979 76.643 169.007 81.4235 160.07 89.0038C151.133 96.5842 144.626 106.629 141.362 117.884C141.275 118.185 141.091 118.45 140.838 118.635C140.586 118.821 140.278 118.917 139.964 118.909L139.587 118.897C139.39 118.891 139.194 118.884 138.996 118.884C129.397 118.914 120.096 122.225 112.638 128.268C105.18 134.311 100.012 142.723 97.9915 152.107C97.9243 152.426 97.7495 152.712 97.4964 152.917C97.2432 153.123 96.9272 153.235 96.6013 153.235H1.42062C1.04448 153.234 0.684081 153.083 0.418457 152.817C0.152833 152.551 0.00366211 152.19 0.00366211 151.814C0.00366211 151.438 0.152833 151.077 0.418457 150.811C0.684081 150.544 1.04448 150.394 1.42062 150.393H95.4643C97.8318 140.632 103.401 131.946 111.282 125.719C119.163 119.493 128.903 116.086 138.947 116.043C142.522 104.476 149.38 94.1977 158.686 86.455C167.993 78.7122 179.347 73.8388 191.371 72.4267C203.394 71.0146 215.569 73.1246 226.416 78.5004C237.264 83.8762 246.316 92.2864 252.474 102.709C253.872 102.6 255.243 102.546 256.561 102.546C269.935 102.582 282.802 107.667 292.587 116.784C302.373 125.901 308.355 138.376 309.336 151.714C309.349 151.9 309.325 152.087 309.266 152.264C309.207 152.441 309.114 152.605 308.991 152.746C308.869 152.887 308.72 153.002 308.553 153.085C308.386 153.168 308.204 153.218 308.018 153.231C307.984 153.233 307.951 153.234 307.917 153.234Z" fill="#CBCBCB"/>
<path id="Vector_2" d="M291.013 171.451H58.0147C57.6379 171.451 57.2766 171.301 57.0101 171.035C56.7437 170.768 56.594 170.407 56.594 170.03C56.594 169.653 56.7437 169.292 57.0101 169.025C57.2766 168.759 57.6379 168.609 58.0147 168.609H291.013C291.39 168.609 291.752 168.759 292.018 169.025C292.284 169.292 292.434 169.653 292.434 170.03C292.434 170.407 292.284 170.768 292.018 171.035C291.752 171.301 291.39 171.451 291.013 171.451Z" fill="#CBCBCB"/>
<path id="Vector_3" d="M114.844 192.051H36.7038C36.5169 192.052 36.3318 192.015 36.159 191.944C35.9861 191.873 35.8291 191.768 35.6967 191.636C35.5644 191.504 35.4594 191.348 35.3878 191.175C35.3162 191.002 35.2793 190.817 35.2793 190.63C35.2793 190.444 35.3162 190.259 35.3878 190.086C35.4594 189.913 35.5644 189.756 35.6967 189.625C35.8291 189.493 35.9861 189.388 36.159 189.317C36.3318 189.246 36.5169 189.209 36.7038 189.21H114.844C115.22 189.211 115.58 189.361 115.846 189.627C116.111 189.894 116.261 190.254 116.261 190.63C116.261 191.007 116.111 191.367 115.846 191.634C115.58 191.9 115.22 192.05 114.844 192.051Z" fill="#CBCBCB"/>
</g>
<g id="Balloon2">
<path id="Vector_4" d="M187.901 468.486C187.901 526.246 127.346 553.883 127.346 553.883C127.346 553.883 66.1708 526.246 64.9286 468.486C64.1985 434.536 92.4569 407 126.415 407C134.489 407 142.484 408.59 149.944 411.68C157.404 414.77 164.182 419.299 169.892 425.009C175.601 430.718 180.13 437.497 183.22 444.956C186.31 452.416 187.901 460.412 187.901 468.486V468.486Z" fill="#E5E5E5"/>
<path id="Vector_5" d="M147.842 557.299H106.851L101.882 537.425H152.81L147.842 557.299Z" fill="#CBCBCB"/>
<path id="Vector_6" d="M146.444 591.288H108.248V611.192H146.444V591.288Z" fill="white"/>
<path id="Vector_7" d="M146.755 611.503H107.938V590.977H146.755V611.503ZM108.559 610.882H146.134V591.598H108.559V610.882Z" fill="#CBCBCB"/>
<path id="Vector_8" d="M135.176 559.643H119.517L117.72 556.819H136.973L135.176 559.643Z" fill="#CBCBCB"/>
<path id="Vector_9" d="M107.782 557.299H107.161V587.732H107.782V557.299Z" fill="#CBCBCB"/>
<path id="Vector_10" d="M147.531 557.299H146.91V587.732H147.531V557.299Z" fill="#CBCBCB"/>
<path id="Vector_11" d="M133.572 537.088L133.192 536.596C151.135 522.76 172.523 499.056 172.523 464.706C172.537 452.676 168.999 440.909 162.352 430.881C155.705 420.853 146.245 413.011 135.159 408.338L135.401 407.766C146.6 412.487 156.155 420.408 162.87 430.538C169.584 440.667 173.158 452.554 173.144 464.706C173.144 499.309 151.624 523.167 133.572 537.088Z" fill="#CBCBCB"/>
<path id="Vector_12" d="M113.697 537.089L113.318 536.597C131.26 522.76 152.648 499.057 152.648 464.706C152.653 452.757 149.157 441.067 142.593 431.082C136.028 421.097 126.683 413.253 115.71 408.52L115.957 407.95C127.04 412.731 136.481 420.654 143.112 430.741C149.743 440.827 153.274 452.635 153.269 464.706C153.269 499.309 131.75 523.167 113.697 537.089Z" fill="#CBCBCB"/>
<path id="Vector_13" d="M139.132 537.088C121.079 523.167 99.5598 499.309 99.5598 464.706C99.5549 452.635 103.086 440.827 109.717 430.741C116.348 420.654 125.789 412.731 136.873 407.95L137.119 408.52C126.147 413.253 116.801 421.096 110.236 431.082C103.672 441.067 100.176 452.757 100.181 464.706C100.181 499.056 121.569 522.76 139.511 536.596L139.132 537.088Z" fill="#CBCBCB"/>
<path id="Vector_14" d="M119.258 537.088C101.205 523.167 79.6856 499.309 79.6856 464.706C79.6654 452.506 83.2646 440.573 90.0278 430.419C96.7911 420.264 106.414 412.344 117.68 407.66L117.92 408.234C106.767 412.87 97.2403 420.711 90.545 430.763C83.8496 440.816 80.2866 452.628 80.3066 464.706C80.3066 499.057 101.695 522.76 119.637 536.596L119.258 537.088Z" fill="#CBCBCB"/>
<path id="Vector_15" d="M126.725 407H126.104V537.425H126.725V407Z" fill="#CBCBCB"/>
<path id="Vector_16" d="M119.417 586.775L108.029 598.163L108.468 598.602L119.857 587.214L119.417 586.775Z" fill="#CBCBCB"/>
<path id="Vector_17" d="M124.954 586.585L108.024 604.39L108.474 604.818L125.404 587.013L124.954 586.585Z" fill="#CBCBCB"/>
<path id="Vector_18" d="M150.015 586.8H103.435V592.39H150.015V586.8Z" fill="white"/>
<path id="Vector_19" d="M150.326 592.7H103.125V586.49H150.326V592.7ZM103.746 592.079H149.705V587.111H103.746V592.079Z" fill="#CBCBCB"/>
</g>
<g id="Balloon3">
<path id="Vector_20" d="M305.091 322.106C305.091 360.229 265.122 378.471 265.122 378.471C265.122 378.471 224.744 360.229 223.924 322.106C223.442 299.697 242.094 281.522 264.507 281.522C275.271 281.522 285.593 285.798 293.204 293.409C300.815 301.02 305.091 311.342 305.091 322.106V322.106Z" fill="#E5E5E5"/>
<path id="Vector_21" d="M278.65 380.726H251.594L248.315 367.608H281.93L278.65 380.726Z" fill="#CBCBCB"/>
<path id="Vector_22" d="M277.728 403.16H252.517V416.298H277.728V403.16Z" fill="white"/>
<path id="Vector_23" d="M277.933 416.503H252.312V402.955H277.933V416.503ZM252.722 416.093H277.523V403.365H252.722V416.093Z" fill="#CBCBCB"/>
<path id="Vector_24" d="M270.29 382.273H259.954L258.768 380.409H271.476L270.29 382.273Z" fill="#CBCBCB"/>
<path id="Vector_25" d="M252.209 380.726H251.799V400.813H252.209V380.726Z" fill="#CBCBCB"/>
<path id="Vector_26" d="M278.445 380.726H278.035V400.813H278.445V380.726Z" fill="#CBCBCB"/>
<path id="Vector_27" d="M269.231 367.386L268.981 367.061C280.824 357.929 294.941 342.283 294.941 319.611C294.95 311.67 292.615 303.903 288.228 297.284C283.84 290.666 277.597 285.49 270.279 282.405L270.439 282.028C277.831 285.143 284.138 290.372 288.569 297.058C293.001 303.744 295.36 311.59 295.351 319.611C295.351 342.45 281.147 358.197 269.231 367.386Z" fill="#CBCBCB"/>
<path id="Vector_28" d="M256.113 367.386L255.863 367.062C267.706 357.929 281.823 342.283 281.823 319.611C281.826 311.723 279.519 304.008 275.186 297.417C270.853 290.827 264.684 285.649 257.442 282.525L257.605 282.149C264.92 285.305 271.152 290.534 275.528 297.192C279.905 303.85 282.236 311.643 282.233 319.611C282.233 342.45 268.029 358.197 256.113 367.386Z" fill="#CBCBCB"/>
<path id="Vector_29" d="M272.901 367.386C260.986 358.197 246.782 342.45 246.782 319.611C246.779 311.643 249.11 303.849 253.486 297.192C257.863 290.534 264.095 285.305 271.41 282.149L271.573 282.525C264.331 285.649 258.162 290.826 253.829 297.417C249.496 304.008 247.189 311.723 247.192 319.611C247.192 342.283 261.309 357.929 273.152 367.061L272.901 367.386Z" fill="#CBCBCB"/>
<path id="Vector_30" d="M259.784 367.386C247.868 358.197 233.664 342.45 233.664 319.611C233.651 311.558 236.026 303.682 240.491 296.979C244.955 290.277 251.306 285.049 258.742 281.958L258.9 282.336C251.539 285.397 245.251 290.572 240.832 297.207C236.413 303.842 234.061 311.639 234.074 319.611C234.074 342.284 248.191 357.929 260.034 367.061L259.784 367.386Z" fill="#CBCBCB"/>
<path id="Vector_31" d="M264.712 281.522H264.302V367.608H264.712V281.522Z" fill="#CBCBCB"/>
<path id="Vector_32" d="M259.889 400.181L252.372 407.698L252.662 407.988L260.179 400.471L259.889 400.181Z" fill="#CBCBCB"/>
<path id="Vector_33" d="M263.543 400.056L252.369 411.808L252.666 412.091L263.84 400.339L263.543 400.056Z" fill="#CBCBCB"/>
<path id="Vector_34" d="M280.085 400.198H249.34V403.887H280.085V400.198Z" fill="white"/>
<path id="Vector_35" d="M280.29 404.092H249.135V399.993H280.29V404.092ZM249.545 403.682H279.88V400.403H249.545V403.682Z" fill="#CBCBCB"/>
</g>
<g id="Cloud3">
<path id="Vector_36" d="M644.862 374.228C645.119 374.228 645.367 374.13 645.555 373.954C645.744 373.778 645.858 373.538 645.876 373.281C646.542 364.234 650.6 355.772 657.237 349.588C663.874 343.405 672.602 339.956 681.673 339.931C682.759 339.931 683.899 339.987 685.063 340.096C685.258 340.114 685.453 340.076 685.627 339.986C685.801 339.896 685.944 339.757 686.042 339.588C690.209 332.294 696.431 326.389 703.933 322.61C711.435 318.83 719.883 317.344 728.225 318.336C736.566 319.328 744.43 322.755 750.836 328.188C757.243 333.622 761.907 340.821 764.247 348.889C764.308 349.105 764.44 349.295 764.622 349.428C764.803 349.561 765.023 349.63 765.248 349.624L765.519 349.616C765.66 349.611 765.8 349.606 765.942 349.606C772.823 349.627 779.489 352.001 784.835 356.332C790.181 360.664 793.886 366.693 795.334 373.42C795.382 373.648 795.507 373.853 795.689 374C795.87 374.148 796.097 374.228 796.33 374.228H864.554C864.688 374.228 864.821 374.202 864.945 374.151C865.069 374.1 865.182 374.025 865.277 373.931C865.372 373.836 865.447 373.724 865.498 373.6C865.55 373.476 865.576 373.344 865.576 373.21C865.576 373.076 865.55 372.943 865.498 372.819C865.447 372.695 865.372 372.583 865.277 372.488C865.182 372.394 865.069 372.319 864.945 372.268C864.821 372.217 864.688 372.191 864.554 372.191H797.145C795.448 365.195 791.457 358.968 785.807 354.505C780.158 350.043 773.177 347.601 765.977 347.569C763.414 339.279 758.499 331.911 751.828 326.361C745.158 320.811 737.019 317.318 728.4 316.306C719.782 315.294 711.055 316.806 703.28 320.659C695.505 324.513 689.016 330.541 684.602 338.012C683.601 337.934 682.618 337.895 681.673 337.895C672.087 337.921 662.864 341.566 655.85 348.1C648.836 354.635 644.548 363.578 643.845 373.138C643.835 373.272 643.852 373.406 643.895 373.532C643.937 373.659 644.004 373.777 644.092 373.878C644.179 373.978 644.286 374.061 644.406 374.121C644.525 374.181 644.656 374.216 644.789 374.225C644.813 374.227 644.838 374.228 644.862 374.228Z" fill="#CBCBCB"/>
<path id="Vector_37" d="M656.978 387.285H823.989C824.259 387.285 824.518 387.178 824.709 386.987C824.9 386.796 825.007 386.537 825.007 386.267C825.007 385.997 824.9 385.738 824.709 385.547C824.518 385.356 824.259 385.248 823.989 385.248H656.978C656.708 385.248 656.449 385.356 656.258 385.547C656.067 385.738 655.96 385.997 655.96 386.267C655.96 386.537 656.067 386.796 656.258 386.987C656.449 387.178 656.708 387.285 656.978 387.285V387.285Z" fill="#CBCBCB"/>
<path id="Vector_38" d="M783.254 402.051H839.264C839.534 402.05 839.792 401.943 839.982 401.752C840.172 401.561 840.279 401.302 840.279 401.033C840.279 400.763 840.172 400.505 839.982 400.314C839.792 400.123 839.534 400.015 839.264 400.014H783.254C783.121 400.014 782.988 400.041 782.865 400.092C782.741 400.143 782.629 400.218 782.534 400.313C782.44 400.407 782.365 400.52 782.314 400.643C782.262 400.767 782.236 400.899 782.236 401.033C782.236 401.167 782.262 401.299 782.314 401.423C782.365 401.546 782.44 401.658 782.534 401.753C782.629 401.847 782.741 401.922 782.865 401.974C782.988 402.025 783.121 402.051 783.254 402.051V402.051Z" fill="#CBCBCB"/>
</g>
<g id="Cloud2">
<path id="Vector_39" d="M439.32 488.228C439.063 488.228 438.815 488.13 438.626 487.954C438.438 487.778 438.323 487.538 438.305 487.281C437.64 478.234 433.582 469.772 426.945 463.588C420.308 457.405 411.58 453.956 402.509 453.931C401.423 453.931 400.283 453.987 399.119 454.095C398.924 454.114 398.728 454.076 398.555 453.986C398.381 453.896 398.237 453.757 398.14 453.588C393.973 446.294 387.751 440.389 380.249 436.61C372.747 432.83 364.298 431.344 355.957 432.336C347.616 433.328 339.751 436.755 333.345 442.188C326.939 447.622 322.275 454.821 319.935 462.889C319.873 463.105 319.741 463.295 319.56 463.428C319.379 463.561 319.159 463.63 318.934 463.624L318.663 463.615C318.522 463.611 318.381 463.606 318.239 463.606C311.359 463.627 304.693 466.001 299.346 470.332C294 474.664 290.296 480.693 288.848 487.42C288.8 487.648 288.675 487.853 288.493 488C288.312 488.148 288.085 488.228 287.852 488.228H219.627C219.493 488.228 219.36 488.202 219.237 488.151C219.113 488.1 219 488.025 218.905 487.931C218.81 487.836 218.735 487.724 218.684 487.6C218.632 487.476 218.606 487.343 218.606 487.209C218.606 487.075 218.632 486.943 218.684 486.819C218.735 486.695 218.81 486.583 218.905 486.488C219 486.394 219.113 486.319 219.237 486.268C219.36 486.217 219.493 486.191 219.627 486.191H287.037C288.734 479.195 292.725 472.968 298.374 468.505C304.024 464.042 311.005 461.601 318.204 461.569C320.767 453.279 325.683 445.911 332.353 440.361C339.024 434.811 347.163 431.318 355.781 430.306C364.4 429.294 373.126 430.806 380.901 434.659C388.677 438.513 395.165 444.541 399.579 452.012C400.581 451.934 401.564 451.895 402.509 451.895C412.095 451.921 421.318 455.566 428.332 462.1C435.346 468.635 439.634 477.578 440.337 487.138C440.347 487.272 440.33 487.406 440.287 487.532C440.245 487.659 440.178 487.777 440.09 487.877C440.002 487.978 439.896 488.061 439.776 488.121C439.656 488.181 439.526 488.216 439.393 488.225C439.368 488.227 439.344 488.228 439.32 488.228Z" fill="#CBCBCB"/>
<path id="Vector_40" d="M427.204 501.285H260.193C260.059 501.285 259.926 501.259 259.802 501.208C259.678 501.157 259.566 501.082 259.471 500.988C259.376 500.893 259.301 500.781 259.249 500.657C259.198 500.533 259.172 500.401 259.172 500.267C259.172 500.133 259.198 500 259.249 499.876C259.301 499.752 259.376 499.64 259.471 499.545C259.566 499.451 259.678 499.376 259.802 499.325C259.926 499.274 260.059 499.248 260.193 499.248H427.204C427.474 499.248 427.733 499.356 427.924 499.547C428.115 499.738 428.222 499.997 428.222 500.267C428.222 500.537 428.115 500.796 427.924 500.987C427.733 501.178 427.474 501.285 427.204 501.285Z" fill="#CBCBCB"/>
<path id="Vector_41" d="M300.927 516.051H244.918C244.784 516.052 244.651 516.026 244.527 515.975C244.403 515.924 244.29 515.849 244.196 515.754C244.101 515.659 244.025 515.547 243.974 515.423C243.923 515.3 243.896 515.167 243.896 515.033C243.896 514.899 243.923 514.766 243.974 514.642C244.025 514.519 244.101 514.406 244.196 514.312C244.29 514.217 244.403 514.142 244.527 514.091C244.651 514.04 244.784 514.014 244.918 514.014H300.927C301.061 514.014 301.194 514.04 301.318 514.091C301.442 514.142 301.555 514.217 301.649 514.312C301.744 514.406 301.82 514.519 301.871 514.642C301.922 514.766 301.949 514.899 301.949 515.033C301.949 515.167 301.922 515.3 301.871 515.423C301.82 515.547 301.744 515.659 301.649 515.754C301.555 515.849 301.442 515.924 301.318 515.975C301.194 516.026 301.061 516.052 300.927 516.051V516.051Z" fill="#CBCBCB"/>
</g>
</g>
<defs>
<clipPath id="clip0_0_1">
<rect width="865.573" height="658.549" fill="white"/>
</clipPath>
</defs>
</svg>
