<svg width="866" height="659" viewBox="0 0 866 659" fill="none" xmlns="http://www.w3.org/2000/svg">
<g id="heroBgImg (2) 1" clip-path="url(#clip0_0_1)">
<g id="Balloon1">
<path id="Vector" d="M522.992 647.768H519.639L518.044 634.839H522.992V647.768Z" fill="#9F616A"/>
<path id="Vector_2" d="M523.847 651.018H513.038V650.881C513.039 649.766 513.483 648.696 514.272 647.907C515.06 647.119 516.13 646.675 517.245 646.674H523.847V651.018Z" fill="#2F2E41"/>
<path id="Vector_3" d="M566.219 641.416L563.345 643.143L555.319 632.881L559.56 630.333L566.219 641.416Z" fill="#9F616A"/>
<path id="Vector_4" d="M559.36 649.328L559.29 649.211C558.716 648.254 558.546 647.109 558.816 646.027C559.086 644.944 559.774 644.013 560.729 643.438L566.388 640.038L568.625 643.761L559.36 649.328Z" fill="#2F2E41"/>
<path id="Vector_5" d="M523.863 645.1L523.805 645.1C522.175 645.095 520.545 645.001 518.925 644.819C518.307 644.758 517.637 644.692 516.83 644.625L516.802 644.62C516.251 644.456 516.236 639.291 516.47 621.609C516.589 612.553 516.725 602.289 516.564 595.752L516.562 595.687L516.61 595.645C519.526 593.089 523.005 591.259 526.763 590.305C530.521 589.351 534.452 589.3 538.234 590.155L538.293 590.168L538.323 590.22C541.618 595.794 546.592 603.823 551.403 611.589C562.446 629.414 565.604 634.657 565.258 635.052L565.216 635.084C564.462 635.461 563.896 635.752 563.414 635.998C561.509 636.985 559.552 637.868 557.551 638.643L557.462 638.679L557.398 638.609C546.193 626.331 536.869 612.616 531.101 599.937C530.427 604.265 529.609 609.917 528.745 615.889C526.26 633.062 524.58 644.37 523.904 645.059L523.863 645.1Z" fill="#2F2E41"/>
<path id="Vector_6" d="M526.882 597.073C533.563 597.043 540.201 598.154 546.508 600.358C546.728 589.77 543.178 579.447 536.493 571.233L536.444 571.174L536.469 571.101C538.229 566.015 540.048 560.758 541.674 555.528L541.65 555.44C540.509 551.387 538.062 547.291 534.168 542.918C533.746 542.481 533.173 542.22 532.566 542.189C531.958 542.159 531.362 542.36 530.897 542.753C527.486 545.872 524.829 549.727 523.127 554.026C521.425 558.324 520.724 562.953 521.076 567.563L521.078 567.589L521.071 567.614C518.022 577.944 516.915 583.25 515.939 587.931C515.226 591.346 514.609 594.302 513.371 598.527C517.81 597.561 522.339 597.074 526.882 597.073V597.073Z" fill="#CBCBCB"/>
<path id="Vector_7" opacity="0.1" d="M536.719 564.419L526.8 586.013L521.133 580.277L536.719 564.419Z" fill="black"/>
<path id="Vector_8" d="M532.478 540.816C536.375 540.816 539.535 537.657 539.535 533.759C539.535 529.862 536.375 526.703 532.478 526.703C528.581 526.703 525.421 529.862 525.421 533.759C525.421 537.657 528.581 540.816 532.478 540.816Z" fill="#9F616A"/>
<path id="Vector_9" d="M523.922 529.773H535.127V524.889C532.668 523.912 530.261 523.081 528.806 524.889C527.511 524.889 526.268 525.403 525.352 526.319C524.436 527.235 523.922 528.478 523.922 529.773V529.773Z" fill="#2F2E41"/>
<path id="Vector_10" d="M535.748 524.027C542.446 524.027 544.321 532.423 544.321 537.161C544.321 539.802 543.127 540.747 541.249 541.067L540.586 537.531L539.033 541.219C538.506 541.222 537.952 541.212 537.378 541.201L536.851 540.117L535.677 541.181C530.975 541.188 527.174 541.874 527.174 537.161C527.174 532.423 528.818 524.027 535.748 524.027Z" fill="#2F2E41"/>
<path id="Vector_11" d="M738.091 198C738.091 384 543.091 473 543.091 473C543.091 473 346.091 384 342.091 198C339.74 88.6729 430.739 0 540.091 0C649.443 0 738.091 88.6477 738.091 198Z" fill="#F9A826"/>
<path id="Vector_12" d="M547.274 646.307H543.163L541.208 630.453H547.274V646.307Z" fill="#FFB7B7"/>
<path id="Vector_13" d="M540.227 645.132H548.154V650.123H535.236C535.236 649.468 535.365 648.819 535.616 648.213C535.867 647.608 536.235 647.058 536.698 646.594C537.162 646.131 537.712 645.763 538.317 645.512C538.923 645.261 539.572 645.132 540.227 645.132Z" fill="#2F2E41"/>
<path id="Vector_14" d="M562.696 646.307H558.586L556.63 630.453H562.697L562.696 646.307Z" fill="#FFB7B7"/>
<path id="Vector_15" d="M555.65 645.132H563.577V650.123H550.659C550.659 648.8 551.184 647.53 552.12 646.594C553.056 645.658 554.326 645.132 555.65 645.132Z" fill="#2F2E41"/>
<path id="Vector_16" d="M562.194 599.089C561.751 598.804 561.376 598.425 561.095 597.98C560.814 597.534 560.635 597.033 560.569 596.51C560.503 595.988 560.552 595.458 560.714 594.956C560.875 594.455 561.144 593.995 561.502 593.609L558.796 555.202L566.592 555.958L566.806 593.57C567.414 594.215 567.765 595.061 567.792 595.947C567.819 596.833 567.519 597.698 566.951 598.378C566.382 599.058 565.584 599.506 564.707 599.637C563.831 599.768 562.936 599.573 562.194 599.089Z" fill="#FFB7B7"/>
<path id="Vector_17" d="M547.079 638.32L542.555 638.104C542.169 638.086 541.805 637.921 541.538 637.642C541.271 637.364 541.12 636.994 541.118 636.608L540.802 590.825C540.8 590.608 540.846 590.393 540.935 590.195C541.024 589.997 541.156 589.82 541.319 589.677C541.483 589.534 541.676 589.429 541.884 589.367C542.093 589.306 542.312 589.29 542.527 589.321L560.629 591.949C560.987 591.999 561.315 592.177 561.552 592.449C561.789 592.721 561.921 593.07 561.921 593.431L564.25 635.853C564.251 636.053 564.213 636.25 564.138 636.434C564.063 636.619 563.952 636.786 563.812 636.928C563.672 637.069 563.505 637.181 563.321 637.258C563.137 637.334 562.94 637.374 562.741 637.374H557.863C557.503 637.375 557.154 637.247 556.881 637.013C556.607 636.779 556.427 636.455 556.372 636.099C556.372 636.099 552.688 604.279 552.182 604.297C551.673 604.307 548.649 636.992 548.649 636.992C548.604 637.358 548.427 637.695 548.151 637.94C547.875 638.185 547.52 638.321 547.151 638.322C547.127 638.322 547.103 638.321 547.079 638.32Z" fill="#2F2E41"/>
<path id="Vector_18" d="M560.561 568.108C560.378 567.976 560.228 567.806 560.12 567.608C560.012 567.411 559.95 567.192 559.938 566.967L559.366 556.616C559.31 555.59 559.635 554.58 560.279 553.78C560.923 552.98 561.841 552.447 562.855 552.283C563.869 552.12 564.908 552.337 565.771 552.894C566.634 553.451 567.26 554.308 567.529 555.299L570.038 564.554C570.142 564.94 570.089 565.352 569.89 565.699C569.691 566.046 569.363 566.3 568.977 566.405L561.839 568.341C561.622 568.4 561.395 568.41 561.173 568.369C560.952 568.329 560.743 568.24 560.561 568.108V568.108Z" fill="#3F3D56"/>
<path id="Vector_19" d="M553.893 543.506C558.441 543.506 562.127 539.819 562.127 535.271C562.127 530.723 558.441 527.037 553.893 527.037C549.345 527.037 545.658 530.723 545.658 535.271C545.658 539.819 549.345 543.506 553.893 543.506Z" fill="#FFB7B7"/>
<path id="Vector_20" d="M559.72 541.786C559.376 542.157 558.933 542.422 558.443 542.55C557.953 542.679 557.437 542.664 556.955 542.509C556.473 542.354 556.045 542.064 555.722 541.674C555.399 541.285 555.194 540.811 555.131 540.308C555.115 540.135 555.116 539.96 555.134 539.787C555.238 538.796 555.81 537.897 555.673 536.852C555.642 536.592 555.545 536.344 555.391 536.131C554.167 534.492 551.293 536.865 550.138 535.381C549.43 534.471 550.262 533.038 549.719 532.021C549.001 530.679 546.876 531.341 545.543 530.606C544.061 529.788 544.149 527.513 545.125 526.129C545.761 525.312 546.568 524.644 547.491 524.174C548.414 523.705 549.429 523.444 550.464 523.411C552.536 523.363 554.594 523.764 556.496 524.589C558.742 525.319 560.724 526.693 562.196 528.541C562.957 529.752 563.44 531.117 563.609 532.538C563.777 533.959 563.628 535.399 563.171 536.755C562.673 538.418 560.974 540.45 559.72 541.786Z" fill="#2F2E41"/>
<path id="Vector_21" d="M562.112 549.006C561.969 548.903 561.823 548.802 561.674 548.703C560.884 548.177 560.028 547.757 559.128 547.454V545.291H552.758V547.298C550.646 547.881 548.752 549.071 547.312 550.722C545.872 552.372 544.948 554.409 544.657 556.581L540.319 588.783C540.291 588.984 540.305 589.189 540.358 589.385C540.412 589.581 540.505 589.764 540.631 589.923C540.755 590.081 540.91 590.212 541.086 590.309C541.262 590.405 541.455 590.465 541.655 590.484C544.694 590.878 547.622 591.881 550.265 593.433C552.183 594.496 554.343 595.047 556.536 595.034C558.277 595.027 560.004 594.72 561.641 594.125C561.918 594.023 562.159 593.841 562.333 593.602C562.507 593.363 562.607 593.078 562.619 592.782C562.775 589.317 563.689 571.478 566.348 560.597C566.866 558.463 566.739 556.223 565.985 554.16C565.231 552.097 563.884 550.304 562.112 549.006Z" fill="#3F3D56"/>
<path id="Vector_22" d="M609.091 484H477.091L461.091 420H625.091L609.091 484Z" fill="#3F3D56"/>
<path id="Vector_23" d="M604.591 593.451H481.591V657.549H604.591V593.451Z" fill="white"/>
<path id="Vector_24" d="M605.591 658.549H480.591V592.451H605.591V658.549ZM482.591 656.549H603.591V594.451H482.591V656.549Z" fill="#3F3D56"/>
<path id="Vector_25" d="M568.304 491.547H517.878L512.091 482.453H574.091L568.304 491.547Z" fill="#3F3D56"/>
<path id="Vector_26" d="M480.091 484H478.091V582H480.091V484Z" fill="#3F3D56"/>
<path id="Vector_27" d="M608.091 484H606.091V582H608.091V484Z" fill="#3F3D56"/>
<path id="Vector_28" d="M563.138 418.916L561.917 417.332C619.695 372.776 688.57 296.444 688.57 185.829C688.616 147.087 677.222 109.194 655.818 76.9022C634.413 44.6103 603.951 19.3571 568.25 4.30956L569.03 2.46777C605.092 17.668 635.864 43.1774 657.485 75.797C679.107 108.416 690.616 146.694 690.57 185.829C690.57 297.256 621.272 374.085 563.138 418.916Z" fill="#3F3D56"/>
<path id="Vector_29" d="M499.137 418.916L497.916 417.332C555.695 372.776 624.57 296.444 624.57 185.829C624.585 147.347 613.328 109.705 592.189 77.5498C571.05 45.3949 540.955 20.1367 505.621 4.89502L506.414 3.05908C542.106 18.4554 572.507 43.9699 593.86 76.4511C615.214 108.932 626.585 146.957 626.57 185.829C626.57 297.257 557.271 374.086 499.137 418.916Z" fill="#3F3D56"/>
<path id="Vector_30" d="M581.043 418.916C522.91 374.086 453.612 297.257 453.612 185.829C453.596 146.957 464.968 108.932 486.322 76.4504C507.676 43.9692 538.077 18.4547 573.77 3.05872L574.563 4.89465C539.228 20.136 509.133 45.3942 487.993 77.5492C466.854 109.704 455.596 147.347 455.612 185.829C455.612 296.444 524.486 372.776 582.265 417.332L581.043 418.916Z" fill="#3F3D56"/>
<path id="Vector_31" d="M517.044 418.916C458.91 374.086 389.612 297.257 389.612 185.829C389.547 146.54 401.137 108.114 422.916 75.4141C444.696 42.7141 475.685 17.2092 511.964 2.12646L512.735 3.97216C476.821 18.9032 446.142 44.1519 424.582 76.5234C403.021 108.895 391.547 146.934 391.612 185.829C391.612 296.445 460.487 372.776 518.265 417.332L517.044 418.916Z" fill="#3F3D56"/>
<path id="Vector_32" d="M541.091 0H539.091V420H541.091V0Z" fill="#3F3D56"/>
<path id="Vector_33" d="M517.558 578.918L480.884 615.592L482.298 617.006L518.972 580.332L517.558 578.918Z" fill="#3F3D56"/>
<path id="Vector_34" d="M535.386 578.308L480.87 635.645L482.319 637.023L536.836 579.686L535.386 578.308Z" fill="#3F3D56"/>
<path id="Vector_35" d="M616.091 579H466.091V597H616.091V579Z" fill="white"/>
<path id="Vector_36" d="M617.091 598H465.091V578H617.091V598ZM467.091 596H615.091V580H467.091V596Z" fill="#3F3D56"/>
<path id="Vector_37" d="M514.605 587.372C515.006 587.344 515.396 587.229 515.748 587.034C516.099 586.839 516.404 586.569 516.64 586.244C516.876 585.918 517.038 585.545 517.114 585.151C517.19 584.756 517.179 584.349 517.081 583.959L525.254 578.605L520.593 576.591L513.546 581.985C512.902 582.193 512.357 582.629 512.014 583.213C511.67 583.796 511.552 584.485 511.683 585.149C511.814 585.813 512.183 586.406 512.722 586.816C513.26 587.225 513.93 587.423 514.605 587.372H514.605Z" fill="#9F616A"/>
<path id="Vector_38" d="M522.469 583.514L522.366 583.441C520.421 582.01 518.262 580.529 516.174 579.098L516.048 579.012L516.147 578.896C520.604 573.681 525.066 568.234 529.382 562.965L529.374 562.946L529.414 562.925L529.431 562.904L529.441 562.912L529.467 562.899L529.349 562.908L528.019 552.476C527.36 551.391 527.024 550.141 527.049 548.873C527.075 547.604 527.461 546.368 528.162 545.311C528.969 544.17 530.169 543.367 531.532 543.055C532.894 542.744 534.324 542.947 535.546 543.625C536.149 544.03 536.654 544.565 537.022 545.192C537.391 545.818 537.613 546.519 537.674 547.243C537.759 547.888 537.7 548.544 537.499 549.163C537.299 549.783 536.963 550.349 536.516 550.822C536.975 555.884 537.178 560.967 537.124 566.05L537.124 566.098L537.094 566.137C532.493 571.982 527.439 577.796 522.552 583.419L522.469 583.514Z" fill="#CBCBCB"/>
<path id="Vector_39" d="M524.053 551.449C524.094 551.63 524.121 551.814 524.133 551.999L538.535 560.308L542.036 558.292L545.768 563.178L538.279 568.515L521.848 555.553C521.178 555.801 520.449 555.839 519.756 555.662C519.064 555.486 518.442 555.102 517.973 554.563C517.504 554.024 517.21 553.355 517.13 552.645C517.051 551.935 517.189 551.217 517.527 550.588C517.865 549.958 518.387 549.447 519.023 549.121C519.659 548.795 520.379 548.671 521.088 548.764C521.796 548.858 522.459 549.165 522.989 549.644C523.519 550.124 523.89 550.753 524.053 551.449H524.053Z" fill="#FFB7B7"/>
<path id="Vector_40" d="M539.05 559.601C539.026 559.377 539.052 559.151 539.127 558.939C539.202 558.727 539.324 558.535 539.483 558.376L546.813 551.044C547.54 550.318 548.509 549.886 549.535 549.833C550.56 549.779 551.57 550.106 552.368 550.753C553.167 551.399 553.697 552.318 553.858 553.332C554.019 554.347 553.799 555.385 553.24 556.246L548.02 564.29C547.802 564.625 547.459 564.861 547.068 564.944C546.677 565.027 546.269 564.952 545.933 564.734L539.729 560.708C539.54 560.586 539.381 560.424 539.264 560.232C539.146 560.04 539.073 559.825 539.05 559.601V559.601Z" fill="#3F3D56"/>
</g>
</g>
<defs>
<clipPath id="clip0_0_1">
<rect width="865.573" height="658.549" fill="white"/>
</clipPath>
</defs>
</svg>
