<svg width="236" height="224" viewBox="0 0 236 224" fill="none" xmlns="http://www.w3.org/2000/svg">
<g clip-path="url(#clip0_0_1)">
<path fill-rule="evenodd" clip-rule="evenodd" d="M162.384 223.981C167.167 223.981 171.085 220.16 171.085 215.514V169.109C174.062 144.092 185.047 151.522 197.973 159.259C229.22 177.96 249.982 128.771 224.726 113.603C204.906 101.699 196.321 122.166 181.801 120.054C176.193 119.229 172.295 113.334 171.065 104.368V70.846C171.065 66.1805 167.147 62.379 162.365 62.379H122.398C89.4027 58.3087 118.691 40.5492 118.691 24.0185C118.711 10.7517 106.361 0 91.1312 0C75.9202 0 61.9577 10.7517 61.9577 24.0185C61.9577 39.6085 92.2643 58.3087 58.8079 62.379H8.7002C3.91797 62.379 0 66.1805 0 70.846V104.291C2.55436 118.557 12.4645 121.859 25.1595 112.451C29.4424 109.264 36.6637 105.559 41.8877 105.559C55.5046 105.559 66.5671 117.558 66.5671 132.361C66.5671 147.164 55.5238 162.427 41.8877 162.427C37.0286 162.427 32.4961 160.891 28.6549 158.223C28.6549 159.355 4.83984 137.391 0 164.271V215.552C0 220.218 3.91797 224.019 8.7002 224.019C35.5306 224.019 62.3226 224.019 89.1338 224C90.1901 219.104 86.7523 213.498 83.5257 208.64C58.1357 170.376 156.911 166.555 131.521 209.831C130.272 211.962 129.024 214.035 128.064 216.051C126.854 218.567 126.047 221.638 126.22 224L162.384 223.981Z" fill="#F5F5F5"/>
</g>
<defs>
<clipPath id="clip0_0_1">
<rect width="236" height="224" fill="white"/>
</clipPath>
</defs>
</svg>
