<svg width="933" height="647" viewBox="0 0 933 647" fill="none" xmlns="http://www.w3.org/2000/svg">
<g clip-path="url(#clip0_0_1)">
<path d="M27.6039 669.07C15.1327 665.702 -0.0447891 651.692 3.20455 632.436C4.81606 622.886 11.0012 616.704 17.4145 612.707C26.2854 607.177 36.3883 605.094 46.1243 604.567C57.3542 603.96 68.5716 605.491 79.7176 607.11C90.721 608.708 101.725 610.14 112.778 611.013C156.027 614.406 199.54 611.175 241.814 601.432C252.248 599.024 262.619 596.2 272.927 592.958C282.696 590.083 292.246 586.513 301.506 582.277C313.762 576.393 333.693 564.943 332.068 543.738C331.206 532.494 324.585 523.514 317.906 517.258C309.831 509.693 300.486 504.716 291.334 499.883C248.764 477.402 206.11 455.187 163.498 432.841C153.553 427.626 143.542 422.55 133.89 416.438C124.853 410.716 115.859 404.069 108.587 394.879C102.235 386.852 96.5595 376.075 96.7598 364.029C96.9259 354.039 101.472 345.561 107.04 339.225C120.825 323.539 140.326 317.179 157.951 313.848C179.847 309.709 202.061 309.73 223.972 305.733C241.664 302.506 260.567 296.276 274.956 281.678C281.042 275.74 285.347 268.218 287.384 259.963C289.222 251.316 288.329 242.312 284.829 234.195C280.931 224.885 274.714 217.469 268.176 211.396C260.667 204.518 252.15 198.827 242.92 194.523C223.487 185.263 203.053 180.441 183.147 173.335C173.385 169.85 163.524 166.028 154.459 160.042C146.78 154.97 138.414 148.134 134.141 137.968C125.326 116.993 146.356 104.492 158.273 99.7573C166.373 96.6852 174.716 94.2969 183.214 92.6174C185.011 92.2315 184.249 88.6448 182.46 89.0287C173.515 90.7727 164.748 93.3326 156.269 96.6763C149.083 99.662 141.668 103.586 136.024 110.338C133.454 113.386 131.554 116.941 130.447 120.772C129.34 124.602 129.051 128.623 129.598 132.572C131.093 142.636 137.592 150.391 143.696 156.008C151.768 163.435 160.971 168.286 170.302 172.24C180.129 176.404 190.165 179.65 200.197 182.833C220.244 189.194 241.19 194.863 259.287 208.399C271.946 217.868 289.144 235.622 284.933 257.628C283.063 267.397 277.387 275.035 271.261 280.652C264.068 287.055 255.772 292.099 246.777 295.539C206.675 311.678 162.539 300.137 123.47 322.057C110.186 329.51 94.051 343.08 93.9211 364.431C93.8537 375.522 98.2995 385.694 103.796 393.735C110.379 403.365 118.904 410.486 127.577 416.438C136.71 422.475 146.193 427.965 155.976 432.88C166.663 438.493 177.353 444.099 188.045 449.698L252.929 483.723L285.167 500.629C295.006 505.789 305.098 510.739 314.044 518.313C321.369 524.514 330.023 534.689 329.275 547.323C328.682 557.356 322.017 564.596 315.926 569.437C308.039 575.706 299.18 579.76 290.365 583.129C280.198 587.015 269.863 590.239 259.509 593.137C238.299 599.065 216.652 603.302 194.772 605.808C172.946 608.321 150.959 609.14 129.007 608.259C117.915 607.813 106.841 606.926 95.7838 605.598C84.3862 604.225 73.0374 602.11 61.6105 601.172C51.2745 600.323 40.8391 600.52 30.6602 603.248C22.1612 605.525 13.1821 609.585 6.7306 617.506C1.9754 623.554 -0.405825 631.131 0.0349799 638.811C0.471772 646.476 3.20453 653.832 7.87792 659.923C12.6249 666.144 19.2949 670.621 26.8502 672.659C28.6317 673.14 29.3936 669.554 27.6041 669.07L27.6039 669.07Z" fill="#E6E6E6"/>
<path d="M323.2 538.67C334.891 538.67 344.368 529.193 344.368 517.502C344.368 505.812 334.891 496.334 323.2 496.334C311.509 496.334 302.032 505.812 302.032 517.502C302.032 529.193 311.509 538.67 323.2 538.67Z" fill="#E6E6E6"/>
<path d="M103.581 347.316C115.272 347.316 124.749 337.839 124.749 326.148C124.749 314.458 115.272 304.98 103.581 304.98C91.8899 304.98 82.4126 314.458 82.4126 326.148C82.4126 337.839 91.8899 347.316 103.581 347.316Z" fill="#E6E6E6"/>
<path d="M926.369 229.834H894.457C891.994 229.944 889.613 230.76 887.599 232.184C885.585 233.608 884.022 235.58 883.097 237.866L875.86 258.706L870.071 274.843L861.967 298.216C861.12 301.006 859.98 303.698 858.566 306.248C857.1 303.689 855.934 300.97 855.092 298.144L847.35 274.915C845.83 270.429 843.297 263.193 841.705 258.706L834.469 237.866C833.538 235.569 831.964 233.589 829.936 232.165C827.908 230.74 825.512 229.931 823.036 229.834H700.309C699.188 229.834 698.078 230.054 697.042 230.484C696.006 230.913 695.065 231.542 694.272 232.335C693.479 233.127 692.85 234.069 692.421 235.105C691.992 236.141 691.771 237.251 691.771 238.372V287.072C691.771 289.356 690.863 291.546 689.249 293.161C687.634 294.776 685.443 295.683 683.16 295.683H647.557C645.279 295.664 643.1 294.751 641.489 293.14C639.879 291.529 638.965 289.35 638.946 287.072V238.372C638.948 236.169 638.098 234.05 636.575 232.459C635.051 230.868 632.971 229.927 630.769 229.834H601.101C598.829 229.833 596.65 230.731 595.037 232.33C593.424 233.929 592.509 236.101 592.49 238.372V260.877C608.265 280.994 608.265 317.609 592.49 372.17V398.148C592.509 400.419 593.424 402.591 595.037 404.19C596.65 405.79 598.829 406.687 601.101 406.687H630.769C631.891 406.687 633.001 406.466 634.037 406.037C635.073 405.608 636.014 404.979 636.807 404.186C637.6 403.393 638.229 402.452 638.658 401.416C639.087 400.38 639.308 399.27 639.308 398.148V398.148V345.034C639.306 342.812 640.163 340.675 641.701 339.07C643.238 337.465 645.337 336.517 647.557 336.423H683.16C685.424 336.404 687.604 337.285 689.218 338.873C690.833 340.461 691.751 342.625 691.77 344.889L691.771 344.962V398.076C691.771 400.34 692.67 402.512 694.272 404.114C695.873 405.715 698.045 406.615 700.309 406.615H800.386C802.651 406.615 804.823 405.715 806.424 404.114C808.026 402.512 808.925 400.34 808.925 398.076V376.078C808.925 373.813 808.026 371.641 806.424 370.04C804.823 368.439 802.651 367.539 800.386 367.539H747.273C745.001 367.52 742.83 366.604 741.23 364.991C739.631 363.379 738.734 361.199 738.734 358.928V344.455C738.734 342.184 739.631 340.005 741.23 338.392C742.83 336.779 745.001 335.863 747.273 335.844H779.329C781.594 335.844 783.766 334.945 785.367 333.343C786.968 331.742 787.868 329.57 787.868 327.306V327.306V305.307C787.868 303.043 786.968 300.871 785.367 299.27C783.766 297.668 781.594 296.769 779.329 296.769H747.273C745.001 296.75 742.83 295.834 741.23 294.221C739.631 292.608 738.734 290.429 738.734 288.158V277.593C738.715 275.328 739.596 273.149 741.183 271.534C742.771 269.919 744.935 269.001 747.2 268.982L747.273 268.982H790.69C793.211 269.117 795.652 269.91 797.772 271.281C799.892 272.652 801.617 274.553 802.774 276.797L830.923 337.943C833.131 343.123 834.357 348.669 834.541 354.297V398.148C834.541 400.413 835.441 402.585 837.042 404.186C838.644 405.787 840.816 406.687 843.08 406.687H872.749C875.013 406.706 877.193 405.825 878.807 404.237C880.422 402.65 881.34 400.486 881.359 398.221L881.36 398.148V354.297C881.555 348.677 882.756 343.138 884.906 337.943L931.362 237.576C931.885 236.759 932.162 235.808 932.161 234.837C932.159 233.867 931.878 232.917 931.352 232.101C930.826 231.286 930.077 230.638 929.194 230.236C928.31 229.834 927.33 229.694 926.369 229.834V229.834Z" fill="url(#paint0_linear_0_1)"/>
<path d="M551.171 259.936C539.802 263.015 529.492 269.146 521.358 277.665C511.878 244.378 491.472 194.014 471.572 185.765C469.469 184.787 467.162 184.33 464.844 184.431C462.527 184.531 460.268 185.188 458.258 186.344C445.811 193.58 437.707 216.881 444.798 261.022C417.445 210.947 407.894 211.019 403.479 210.947C401.359 210.977 399.295 211.631 397.544 212.828C395.794 214.025 394.435 215.712 393.638 217.677C390.671 224.262 384.738 244.813 399.21 289.026C381.771 265.146 376.416 262.107 370.265 262.397C368.297 262.513 366.397 263.159 364.766 264.267C363.135 265.376 361.835 266.905 361.003 268.692C355.793 278.533 356.372 303.281 372.581 340.186C367.029 335.287 360 332.384 352.609 331.937C350.618 332.076 348.695 332.712 347.014 333.787C345.332 334.861 343.947 336.34 342.985 338.088C336.4 350.172 350.221 384.11 367.298 407.121C381.12 426.008 408.834 455.025 449.068 455.025C454.701 455.017 460.321 454.484 465.856 453.433C467.781 453.092 469.491 452.001 470.612 450.399C471.733 448.798 472.171 446.816 471.832 444.891C471.492 442.966 470.402 441.255 468.801 440.133C467.2 439.011 465.219 438.571 463.294 438.91C463.207 438.925 463.12 438.942 463.034 438.961C429.602 445.473 404.42 427.093 389.152 410.594C366.358 385.919 356.372 356.25 355.793 347.205C360.569 349.159 374.318 357.264 401.092 391.563C402.224 393.147 403.939 394.215 405.859 394.534C407.779 394.853 409.748 394.396 411.331 393.264C412.914 392.131 413.983 390.417 414.302 388.496C414.621 386.576 414.164 384.608 413.031 383.024V383.024C375.403 325.931 371.712 291.341 372.943 279.691C384.014 290.98 411.656 332.371 432.497 363.631C433.544 365.215 435.164 366.333 437.016 366.751C438.869 367.168 440.811 366.854 442.437 365.873C444.063 364.891 445.247 363.32 445.741 361.486C446.235 359.652 446.001 357.699 445.088 356.033C401.67 276.435 403.19 240.254 405.723 228.097C412.235 234.682 429.53 257.621 465.928 336.64C466.74 338.348 468.177 339.678 469.943 340.357C471.708 341.035 473.666 341.009 475.413 340.284C477.159 339.56 478.561 338.192 479.328 336.463C480.094 334.734 480.167 332.777 479.532 330.996C444.219 235.116 459.56 202.625 465.422 198.935C473.02 198.935 494.366 235.55 507.681 283.526C508.477 286.493 509.273 289.388 509.997 292.21C508.129 295.493 506.67 298.992 505.655 302.63C498.419 329.187 491.182 389.465 505.148 406.036C506.538 407.771 508.336 409.136 510.381 410.007C512.427 410.879 514.657 411.229 516.871 411.029C519.675 410.724 522.376 409.8 524.779 408.323C527.182 406.846 529.226 404.854 530.765 402.49C543.718 383.603 536.119 336.206 525.772 294.743C532.82 284.772 543.014 277.459 554.717 273.975C557.217 273.189 559.885 273.097 562.433 273.708C564.982 274.32 567.317 275.613 569.189 277.448C575.123 284.105 585.471 308.998 554.065 396.773C553.742 397.686 553.602 398.653 553.653 399.619C553.703 400.585 553.944 401.532 554.36 402.406C555.202 404.17 556.709 405.528 558.552 406.18C560.394 406.833 562.42 406.727 564.184 405.885C565.949 405.044 567.306 403.536 567.959 401.694C592.996 331.72 596.904 286.638 580.188 267.679C576.551 263.816 571.908 261.045 566.782 259.677C561.655 258.309 556.249 258.399 551.171 259.936V259.936ZM518.608 394.313C518.066 395.285 517.193 396.03 516.148 396.412C510.72 389.971 510.72 351.836 516.654 320.576C527.87 374.63 521.358 390.478 518.608 394.313V394.313Z" fill="url(#paint1_linear_0_1)"/>
<path d="M165.168 110.336C176.859 110.336 186.336 100.859 186.336 89.1681C186.336 77.4773 176.859 68 165.168 68C153.477 68 144 77.4773 144 89.1681C144 100.859 153.477 110.336 165.168 110.336Z" fill="#E6E6E6"/>
</g>
<defs>
<linearGradient id="paint0_linear_0_1" x1="327.546" y1="318.237" x2="935.897" y2="318.237" gradientUnits="userSpaceOnUse">
<stop stop-color="#2D6DD0"/>
<stop offset="0.99" stop-color="#6C139C"/>
</linearGradient>
<linearGradient id="paint1_linear_0_1" x1="327.615" y1="319.721" x2="935.936" y2="319.721" gradientUnits="userSpaceOnUse">
<stop stop-color="#2D6DD0"/>
<stop offset="0.99" stop-color="#6C139C"/>
</linearGradient>
<clipPath id="clip0_0_1">
<rect width="932.161" height="646.623" fill="white"/>
</clipPath>
</defs>
</svg>
