<?xml version="1.0" encoding="utf-8"?>
<svg viewBox="0 0 500 500" xmlns="http://www.w3.org/2000/svg">
  <path d="M 233.169 47.07 C 233.034 47.07 232.922 46.965 232.913 46.831 C 232.565 42.099 228.631 38.434 223.886 38.421 C 223.612 38.421 223.325 38.435 223.031 38.463 C 222.931 38.472 222.835 38.422 222.785 38.335 C 218.667 31.127 208.29 31.08 204.106 38.25 C 203.661 39.014 203.31 39.83 203.064 40.68 C 203.032 40.792 202.928 40.869 202.811 40.866 L 202.743 40.863 C 202.708 40.862 202.672 40.861 202.636 40.861 C 199.062 40.872 195.977 43.371 195.225 46.866 C 195.2 46.985 195.095 47.07 194.974 47.07 L 177.77 47.07 C 177.572 47.069 177.449 46.855 177.548 46.684 C 177.594 46.605 177.678 46.557 177.77 46.556 L 194.768 46.556 C 195.649 42.926 198.892 40.364 202.627 40.347 C 205.196 32.039 215.796 29.626 221.707 36.005 C 222.255 36.596 222.738 37.244 223.148 37.937 C 223.4 37.918 223.648 37.908 223.886 37.908 C 228.9 37.921 233.057 41.795 233.425 46.795 C 233.435 46.937 233.329 47.059 233.187 47.069 C 233.181 47.07 233.175 47.07 233.169 47.07 Z" style="fill: rgba(75, 176, 204, 0.33);"/>
  <path d="M 230.113 50.362 L 187.999 50.362 C 187.801 50.362 187.678 50.148 187.777 49.977 C 187.822 49.898 187.907 49.849 187.999 49.849 L 230.113 49.849 C 230.311 49.849 230.435 50.063 230.336 50.234 C 230.29 50.314 230.205 50.362 230.113 50.362 Z" style="fill: rgba(75, 176, 204, 0.33);"/>
  <path d="M 198.271 54.086 L 184.147 54.086 C 183.949 54.087 183.825 53.873 183.924 53.701 C 183.97 53.621 184.055 53.572 184.147 53.572 L 198.271 53.572 C 198.468 53.573 198.591 53.787 198.492 53.958 C 198.446 54.037 198.362 54.086 198.271 54.086 Z" style="fill: rgba(75, 176, 204, 0.33);"/>
  <path d="M 211.476 104.052 C 211.476 114.492 200.531 119.487 200.531 119.487 C 200.531 119.487 189.473 114.492 189.249 104.052 C 189.117 97.915 194.224 92.938 200.362 92.938 C 206.5 92.938 211.476 97.914 211.476 104.052 Z" style="fill: rgb(200, 87, 34);"/>
  <polygon points="204.235 120.104 196.826 120.104 195.928 116.512 205.133 116.512 204.235 120.104" style="fill: rgb(15, 2, 2);"/>
  <rect x="197.079" y="126.248" width="6.904" height="3.598" style="fill: rgb(22, 4, 4);"/>
  <path d="M 204.039 129.902 L 197.023 129.902 L 197.023 126.192 L 204.039 126.192 L 204.039 129.902 Z M 197.135 129.79 L 203.926 129.79 L 203.926 126.304 L 197.135 126.304 L 197.135 129.79 Z" style="fill: rgb(22, 4, 4);"/>
  <polygon points="201.946 120.528 199.116 120.528 198.791 120.018 202.271 120.018 201.946 120.528" style="fill: rgb(22, 4, 4);"/>
  <rect x="196.882" y="120.105" width="0.112" height="5.501" style="fill: rgb(22, 4, 4);"/>
  <rect x="204.067" y="120.105" width="0.112" height="5.501" style="fill: rgb(22, 4, 4);"/>
  <path d="M 201.656 116.451 L 201.587 116.362 C 204.83 113.862 208.696 109.577 208.696 103.368 C 208.702 98.922 206.04 94.907 201.943 93.18 L 201.987 93.076 C 206.125 94.821 208.814 98.877 208.809 103.368 C 208.809 109.623 204.919 113.935 201.656 116.451 Z" fill="#cbcbcb" style=""/>
  <path d="M 198.064 116.451 L 197.995 116.363 C 201.238 113.862 205.104 109.577 205.104 103.368 C 205.106 98.954 202.481 94.961 198.427 93.213 L 198.472 93.11 C 202.567 94.876 205.218 98.909 205.216 103.368 C 205.216 109.623 201.327 113.935 198.064 116.451 Z" fill="#cbcbcb" style=""/>
  <path d="M 202.661 116.451 C 199.398 113.935 195.508 109.623 195.508 103.368 C 195.506 98.909 198.158 94.876 202.253 93.11 L 202.297 93.213 C 198.244 94.961 195.619 98.954 195.621 103.368 C 195.621 109.577 199.486 113.862 202.729 116.362 L 202.661 116.451 Z" fill="#cbcbcb" style=""/>
  <path d="M 199.069 116.451 C 195.806 113.935 191.916 109.623 191.916 103.368 C 191.909 98.859 194.619 94.789 198.784 93.057 L 198.827 93.161 C 194.704 94.875 192.021 98.904 192.028 103.368 C 192.028 109.577 195.894 113.862 199.137 116.362 L 199.069 116.451 Z" fill="#cbcbcb" style=""/>
  <rect x="200.306" y="92.938" width="0.112" height="23.574" fill="#cbcbcb" style=""/>
  <line x1="197.079" y1="127.53" x2="199.137" y2="125.472" style="fill: rgb(22, 4, 4);"/>
  <rect x="49.363" y="128.893" width="2.911" height="0.112" transform="matrix(0.707107, -0.707107, 0.707107, 0.707107, 70.992531, 71.254501)" style="fill: rgb(22, 4, 4);"/>
  <line x1="197.079" y1="128.655" x2="200.139" y2="125.437" style="fill: rgb(22, 4, 4);"/>
  <rect x="49.099" y="129.438" width="4.441" height="0.112" transform="matrix(0.689057, -0.724707, 0.724707, 0.689057, 69.401337, 75.008759)" style="fill: rgb(22, 4, 4);"/>
  <rect x="196.209" y="125.437" width="8.419" height="1.01" style="fill: rgb(22, 4, 4);"/>
  <path d="M 204.684 126.503 L 196.153 126.503 L 196.153 125.381 L 204.684 125.381 L 204.684 126.503 Z M 196.265 126.391 L 204.572 126.391 L 204.572 125.493 L 196.265 125.493 L 196.265 126.391 Z" style="fill: rgb(22, 4, 4);"/>
  <path d="M 232.658 77.593 C 232.658 84.484 225.434 87.781 225.434 87.781 C 225.434 87.781 218.135 84.484 217.987 77.593 C 217.9 73.543 221.271 70.258 225.323 70.258 C 229.374 70.258 232.658 73.542 232.658 77.593 Z" style="fill: rgb(69, 34, 34);"/>
  <polygon points="227.879 88.189 222.988 88.189 222.396 85.818 228.472 85.818 227.879 88.189" style="fill: rgb(27, 14, 14);"/>
  <rect x="223.155" y="92.244" width="4.557" height="2.375" style="fill: rgb(27, 14, 14);"/>
  <path d="M 227.749 94.656 L 223.118 94.656 L 223.118 92.207 L 227.749 92.207 L 227.749 94.656 Z M 223.192 94.582 L 227.675 94.582 L 227.675 92.281 L 223.192 92.281 L 223.192 94.582 Z" style="fill: rgb(27, 14, 14);"/>
  <polygon points="226.368 88.469 224.499 88.469 224.285 88.132 226.582 88.132 226.368 88.469" style="fill: rgb(27, 14, 14);"/>
  <rect x="223.026" y="88.189" width="0.074" height="3.631" style="fill: rgb(27, 14, 14);"/>
  <rect x="227.768" y="88.189" width="0.074" height="3.631" style="fill: rgb(27, 14, 14);"/>
  <path d="M 226.176 85.778 L 226.131 85.719 C 228.272 84.068 230.823 81.24 230.823 77.142 C 230.827 74.208 229.07 71.557 226.366 70.417 L 226.395 70.349 C 229.126 71.501 230.901 74.178 230.897 77.142 C 230.897 81.271 228.33 84.117 226.176 85.778 Z" style="fill: rgb(135, 93, 93);"/>
  <path d="M 223.805 85.778 L 223.76 85.719 C 225.901 84.068 228.452 81.24 228.452 77.142 C 228.453 74.229 226.721 71.593 224.045 70.439 L 224.075 70.371 C 226.778 71.537 228.528 74.199 228.526 77.142 C 228.526 81.271 225.959 84.117 223.805 85.778 Z" style="fill: rgb(135, 93, 93);"/>
  <path d="M 226.84 85.778 C 224.686 84.117 222.119 81.271 222.119 77.142 C 222.117 74.199 223.868 71.537 226.57 70.371 L 226.6 70.439 C 223.924 71.593 222.192 74.229 222.193 77.142 C 222.193 81.24 224.744 84.068 226.885 85.719 L 226.84 85.778 Z" style="fill: rgb(135, 93, 93);"/>
  <path d="M 224.469 85.778 C 222.315 84.117 219.748 81.271 219.748 77.142 C 219.743 74.166 221.532 71.479 224.28 70.337 L 224.309 70.405 C 221.588 71.536 219.817 74.196 219.822 77.142 C 219.822 81.24 222.373 84.068 224.514 85.719 L 224.469 85.778 Z" style="fill: rgb(135, 93, 93);"/>
  <rect x="225.285" y="70.258" width="0.074" height="15.56" style="fill: rgb(135, 93, 93);"/>
  <line x1="223.155" y1="93.09" x2="224.514" y2="91.732" style="fill: rgb(27, 14, 14);"/>
  <rect x="75.585" y="94.822" width="1.921" height="0.074" transform="matrix(0.707107, -0.707107, 0.707107, 0.707107, 102.633026, 79.461197)" style="fill: rgb(27, 14, 14);"/>
  <line x1="223.155" y1="93.832" x2="225.175" y2="91.708" style="fill: rgb(27, 14, 14);"/>
  <rect x="75.411" y="95.182" width="2.931" height="0.074" transform="matrix(0.689057, -0.724707, 0.724707, 0.689057, 102.187401, 82.871941)" style="fill: rgb(27, 14, 14);"/>
  <rect x="222.581" y="91.708" width="5.557" height="0.667" style="fill: rgb(27, 14, 14);"/>
  <path d="M 228.175 92.412 L 222.544 92.412 L 222.544 91.671 L 228.175 91.671 L 228.175 92.412 Z M 222.618 92.338 L 228.101 92.338 L 228.101 91.746 L 222.618 91.746 L 222.618 92.338 Z" style="fill: rgb(27, 14, 14);"/>
  <path d="M 294.071 87.014 C 294.168 87.014 294.248 86.94 294.255 86.843 C 294.504 83.452 297.324 80.824 300.725 80.815 C 300.921 80.815 301.128 80.825 301.338 80.845 C 301.41 80.852 301.479 80.816 301.515 80.753 C 304.467 75.587 311.904 75.553 314.903 80.692 C 315.223 81.24 315.474 81.825 315.65 82.434 C 315.673 82.515 315.748 82.569 315.831 82.567 L 315.88 82.566 C 315.906 82.565 315.931 82.564 315.957 82.564 C 318.519 82.572 320.73 84.363 321.269 86.868 C 321.287 86.953 321.362 87.014 321.449 87.014 L 333.781 87.014 C 333.923 87.015 334.012 86.862 333.941 86.739 C 333.908 86.681 333.847 86.646 333.781 86.646 L 321.597 86.646 C 320.966 84.044 318.641 82.208 315.963 82.196 C 314.122 76.24 306.524 74.511 302.287 79.083 C 301.894 79.507 301.548 79.971 301.255 80.468 C 301.074 80.454 300.896 80.447 300.725 80.447 C 297.131 80.457 294.151 83.233 293.888 86.817 C 293.881 86.919 293.957 87.007 294.058 87.014 C 294.063 87.014 294.067 87.014 294.071 87.014 Z" style="fill: rgba(115, 165, 197, 0.53);"/>
  <path d="M 296.262 89.374 L 326.449 89.374 C 326.59 89.374 326.679 89.221 326.608 89.098 C 326.575 89.041 326.514 89.006 326.449 89.006 L 296.262 89.006 C 296.12 89.006 296.031 89.16 296.102 89.282 C 296.135 89.339 296.196 89.374 296.262 89.374 Z" style="fill: rgba(115, 165, 197, 0.53);"/>
  <path d="M 319.086 92.043 L 329.21 92.043 C 329.351 92.043 329.439 91.889 329.368 91.767 C 329.335 91.71 329.275 91.676 329.21 91.675 L 319.086 91.675 C 318.944 91.675 318.856 91.829 318.927 91.951 C 318.959 92.008 319.02 92.043 319.086 92.043 Z" style="fill: rgba(115, 165, 197, 0.53);"/>
  <path d="M 313.69 55.161 C 313.69 88.781 276.302 104.867 276.302 104.867 C 276.302 104.867 238.532 88.781 237.765 55.161 C 237.315 35.4 254.762 19.373 275.728 19.373 C 296.693 19.373 313.69 35.396 313.69 55.161 Z" fill="#f9a826" style=""/>
  <polygon points="287.606 106.856 263.747 106.856 260.855 95.288 290.498 95.288 287.606 106.856" fill="#3f3d56" style=""/>
  <polygon points="280.234 108.22 271.119 108.22 270.073 106.576 281.28 106.576 280.234 108.22" fill="#3f3d56" style=""/>
  <rect x="263.928" y="106.856" width="0.361" height="17.713" fill="#3f3d56" style=""/>
  <rect x="287.064" y="106.856" width="0.361" height="17.713" fill="#3f3d56" style=""/>
  <path d="M 279.3 95.092 L 279.079 94.805 C 289.523 86.752 301.972 72.955 301.972 52.961 C 301.989 38.644 293.417 25.713 280.224 20.152 L 280.365 19.819 C 293.692 25.436 302.35 38.499 302.333 52.961 C 302.333 73.102 289.808 86.989 279.3 95.092 Z" fill="#3f3d56" style=""/>
  <path d="M 267.732 95.092 L 267.511 94.806 C 277.955 86.752 290.404 72.955 290.404 52.961 C 290.409 38.745 281.957 25.888 268.904 20.258 L 269.047 19.926 C 282.233 25.614 290.771 38.601 290.765 52.961 C 290.765 73.102 278.24 86.989 267.732 95.092 Z" fill="#3f3d56" style=""/>
  <path d="M 282.536 95.092 C 272.029 86.989 259.503 73.102 259.503 52.961 C 259.497 38.601 268.036 25.613 281.222 19.926 L 281.365 20.257 C 268.311 25.888 259.859 38.745 259.865 52.961 C 259.865 72.955 272.314 86.752 282.757 94.805 L 282.536 95.092 Z" fill="#3f3d56" style=""/>
  <path d="M 270.968 95.092 C 260.461 86.989 247.935 73.102 247.935 52.961 C 247.911 38.439 256.64 25.332 270.05 19.757 L 270.19 20.091 C 256.914 25.61 248.273 38.584 248.297 52.961 C 248.297 72.955 260.746 86.752 271.189 94.805 L 270.968 95.092 Z" fill="#3f3d56" style=""/>
  <rect x="274.953" width="0.361" height="75.915" fill="#3f3d56" style="" y="19.373"/>
  <path d="M 256.92 107.62 C 256.823 107.62 256.743 107.545 256.736 107.449 C 256.487 104.057 253.667 101.43 250.266 101.421 C 250.07 101.421 249.864 101.431 249.653 101.45 C 249.582 101.457 249.512 101.421 249.477 101.359 C 246.525 96.192 239.087 96.158 236.088 101.298 C 235.769 101.846 235.518 102.431 235.341 103.04 C 235.318 103.12 235.244 103.175 235.16 103.173 L 235.111 103.171 C 235.086 103.17 235.06 103.169 235.035 103.169 C 232.472 103.177 230.261 104.969 229.722 107.474 C 229.704 107.559 229.629 107.62 229.542 107.62 L 217.21 107.62 C 217.069 107.62 216.98 107.467 217.05 107.344 C 217.083 107.287 217.144 107.252 217.21 107.252 L 229.395 107.252 C 230.026 104.649 232.35 102.813 235.028 102.801 C 236.869 96.846 244.467 95.117 248.704 99.689 C 249.097 100.112 249.443 100.577 249.737 101.074 C 249.918 101.06 250.095 101.053 250.266 101.053 C 253.86 101.062 256.84 103.839 257.104 107.423 C 257.111 107.524 257.034 107.612 256.933 107.619 C 256.929 107.62 256.924 107.62 256.92 107.62 Z" style="fill: rgba(93, 185, 206, 0.43);"/>
  <path d="M 254.73 109.98 L 224.543 109.98 C 224.401 109.98 224.312 109.827 224.382 109.704 C 224.415 109.647 224.477 109.612 224.543 109.612 L 254.73 109.612 C 254.872 109.612 254.96 109.765 254.889 109.888 C 254.856 109.945 254.796 109.98 254.73 109.98 Z" style="fill: rgba(93, 185, 206, 0.43);"/>
  <path d="M 231.905 112.649 L 221.782 112.649 C 221.64 112.649 221.551 112.496 221.621 112.373 C 221.654 112.316 221.716 112.281 221.782 112.281 L 231.905 112.281 C 232.047 112.28 232.136 112.433 232.066 112.556 C 232.033 112.614 231.972 112.649 231.905 112.649 L 231.905 112.649 Z" style="fill: rgba(93, 185, 206, 0.43);"/>
  <path d="M 288.474 114.601 L 289.588 144.752 L 289.588 144.753 C 289.551 144.805 289.512 144.857 289.474 144.908 C 289.453 144.937 289.432 144.965 289.41 144.994 C 289.378 145.038 289.345 145.081 289.312 145.124 C 289.311 145.124 289.311 145.125 289.311 145.126 L 289.309 145.127 L 289.309 145.128 C 288.332 146.417 287.202 147.583 285.943 148.599 L 285.943 148.611 L 285.93 148.609 C 285.915 148.622 285.9 148.634 285.885 148.647 C 285.774 148.735 285.662 148.823 285.549 148.908 C 285.494 148.95 285.438 148.992 285.383 149.033 C 285.382 149.033 285.382 149.033 285.382 149.034 L 285.381 149.034 L 285.38 149.035 L 285.377 149.037 C 285.376 149.038 285.375 149.038 285.373 149.039 C 285.331 149.071 285.289 149.103 285.245 149.134 C 285.232 149.144 285.219 149.153 285.206 149.163 C 285.184 149.179 285.16 149.196 285.137 149.213 C 285.114 149.229 285.091 149.246 285.068 149.262 C 284.976 149.328 284.882 149.393 284.789 149.457 C 284.766 149.473 284.742 149.489 284.719 149.505 C 284.695 149.52 284.672 149.536 284.648 149.552 L 284.648 149.553 L 284.645 149.554 L 284.644 149.555 L 284.643 149.555 C 284.578 149.599 284.513 149.642 284.448 149.684 L 284.447 149.685 C 284.395 149.719 284.343 149.752 284.29 149.786 C 284.164 149.865 284.038 149.944 283.912 150.02 C 283.823 150.073 283.735 150.125 283.645 150.177 C 283.592 150.208 283.537 150.239 283.483 150.27 C 283.438 150.295 283.393 150.32 283.348 150.345 C 283.335 150.352 283.323 150.359 283.311 150.366 C 283.29 150.377 283.269 150.389 283.249 150.399 L 267.516 150.399 C 267.494 150.388 267.472 150.376 267.449 150.363 C 267.445 150.362 267.441 150.359 267.437 150.357 C 267.437 150.357 267.437 150.356 267.436 150.356 C 267.404 150.339 267.372 150.321 267.34 150.303 L 267.339 150.303 C 267.175 150.211 267.013 150.117 266.852 150.02 C 266.487 149.801 266.128 149.567 265.776 149.319 C 265.587 149.186 265.4 149.049 265.215 148.908 C 265.158 148.864 265.1 148.82 265.042 148.775 C 264.99 148.735 264.939 148.694 264.888 148.653 C 264.706 148.508 264.526 148.359 264.349 148.207 C 264.165 148.05 263.985 147.888 263.807 147.723 C 263.575 147.508 263.347 147.287 263.124 147.06 C 262.709 146.637 262.311 146.193 261.93 145.728 C 261.917 145.713 261.905 145.698 261.893 145.684 C 261.8 145.569 261.708 145.454 261.617 145.337 L 262.545 114.601 C 262.544 114.414 262.579 114.229 262.646 114.055 C 262.787 113.698 263.062 113.455 263.378 113.455 L 287.642 113.455 C 287.962 113.455 288.24 113.704 288.379 114.068 C 288.384 114.08 288.388 114.092 288.392 114.104 C 288.447 114.264 288.475 114.432 288.474 114.601 Z" fill="#3f3d56" style=""/>
  <ellipse cx="265.618" cy="115.48" rx="1.253" ry="1.459" fill="#fff" style=""/>
  <path d="M 278.891 119.391 C 276.778 119.947 274.438 120.285 272.058 120.377 C 271.709 120.396 271.359 120.394 271.011 120.37 C 270.245 120.306 269.589 120.065 268.858 119.934 C 268.507 119.871 268.116 119.825 267.762 119.757 C 267.844 119.655 267.927 119.555 268.012 119.456 C 268.774 119.521 269.548 119.731 270.32 119.829 C 271.632 119.996 273.101 119.81 274.096 119.351 C 274.578 119.128 274.948 118.85 275.428 118.627 C 275.494 118.593 275.565 118.571 275.638 118.563 C 275.79 118.549 275.924 118.61 276.032 118.665 C 276.839 119.072 278.01 119.403 279.097 119.221 C 279.178 119.284 279.024 119.356 278.891 119.391 Z" fill="#fff" style=""/>
  <path d="M 278.482 124.478 C 278.495 124.475 278.509 124.473 278.523 124.471 C 278.465 124.435 278.412 124.395 278.362 124.35 L 278.482 124.478 Z" fill="#fff" style=""/>
  <path d="M 287.389 125.577 C 286.767 125.627 286.143 125.664 285.515 125.688 C 285.037 125.714 284.559 125.711 284.082 125.678 C 283.033 125.59 282.135 125.261 281.135 125.081 C 280.219 124.916 279.105 124.837 278.523 124.471 C 280.027 124.211 281.585 124.741 283.136 124.938 C 284.391 125.092 285.663 125.029 286.896 124.752 C 287.067 125.022 287.232 125.297 287.389 125.577 Z" fill="#fff" style=""/>
  <path d="M 274.444 136.746 L 274.444 136.301 C 274.444 135.949 274.169 135.658 273.817 135.637 L 273.817 133.901 L 273.67 133.901 L 273.67 135.635 L 273.006 135.635 L 273.006 136.742 L 269.869 136.742 L 269.869 149.472 L 276.806 149.472 L 276.806 139.242 C 276.806 137.915 275.769 136.819 274.444 136.746 Z" fill="#2f2e41" style=""/>
  <rect x="271.012" y="138.55" width="0.922" height="0.738" fill="#fff" style=""/>
  <rect x="272.525" y="138.55" width="0.922" height="0.738" fill="#fff" style=""/>
  <rect x="274.038" y="138.55" width="0.922" height="0.738" fill="#fff" style=""/>
  <rect x="271.012" y="140.432" width="0.922" height="0.738" fill="#fff" style=""/>
  <rect x="272.525" y="140.432" width="0.922" height="0.738" fill="#fff" style=""/>
  <rect x="274.038" y="140.432" width="0.922" height="0.738" fill="#fff" style=""/>
  <rect x="271.012" y="142.314" width="0.922" height="0.738" fill="#fff" style=""/>
  <rect x="272.525" y="142.314" width="0.922" height="0.738" fill="#fff" style=""/>
  <rect x="274.038" y="142.314" width="0.922" height="0.738" fill="#fff" style=""/>
  <rect x="271.012" y="144.195" width="0.922" height="0.738" fill="#fff" style=""/>
  <rect x="272.525" y="144.195" width="0.922" height="0.738" fill="#fff" style=""/>
  <rect x="274.038" y="144.195" width="0.922" height="0.738" fill="#fff" style=""/>
  <rect x="271.012" y="146.077" width="0.922" height="0.738" fill="#fff" style=""/>
  <rect x="272.525" y="146.077" width="0.922" height="0.738" fill="#fff" style=""/>
  <rect x="274.038" y="146.077" width="0.922" height="0.738" fill="#fff" style=""/>
  <rect x="271.012" y="147.959" width="0.922" height="0.738" fill="#fff" style=""/>
  <rect x="272.525" y="147.959" width="0.922" height="0.738" fill="#fff" style=""/>
  <rect x="274.038" y="147.959" width="0.922" height="0.738" fill="#fff" style=""/>
  <path d="M 270.061 133.043 L 270.061 149.471 L 265.776 149.471 C 265.587 149.357 265.4 149.24 265.215 149.119 C 265.158 149.081 265.1 149.043 265.042 149.004 C 264.991 148.97 264.939 148.935 264.888 148.9 C 264.706 148.775 264.526 148.648 264.349 148.517 C 264.165 148.382 263.985 148.243 263.807 148.101 C 263.575 147.917 263.347 147.727 263.124 147.531 L 263.124 130.543 L 264.36 130.543 L 264.36 128.569 L 265.615 128.569 L 265.615 126.687 L 265.762 126.687 L 265.762 128.569 L 266.683 128.569 C 267.051 128.569 267.349 128.868 267.349 129.236 L 267.349 130.543 L 267.561 130.543 C 268.668 130.543 269.643 131.271 269.958 132.332 C 269.985 132.423 270.007 132.515 270.023 132.608 C 270.048 132.752 270.061 132.897 270.061 133.043 Z" fill="#2f2e41" style=""/>
  <rect x="265.098" y="132.038" width="2.989" height="0.221" fill="#fff" style=""/>
  <rect x="265.098" y="133.403" width="2.989" height="0.221" fill="#fff" style=""/>
  <rect x="265.098" y="134.768" width="2.989" height="0.221" fill="#fff" style=""/>
  <rect x="265.098" y="136.133" width="2.989" height="0.221" fill="#fff" style=""/>
  <rect x="265.098" y="137.498" width="2.989" height="0.221" fill="#fff" style=""/>
  <rect x="265.098" y="138.864" width="2.989" height="0.221" fill="#fff" style=""/>
  <rect x="265.098" y="140.229" width="2.989" height="0.221" fill="#fff" style=""/>
  <rect x="265.098" y="141.594" width="2.989" height="0.221" fill="#fff" style=""/>
  <rect x="265.098" y="142.959" width="2.989" height="0.221" fill="#fff" style=""/>
  <rect x="265.098" y="144.325" width="2.989" height="0.221" fill="#fff" style=""/>
  <rect x="265.098" y="145.69" width="2.989" height="0.221" fill="#fff" style=""/>
  <rect x="265.098" y="147.055" width="2.989" height="0.221" fill="#fff" style=""/>
  <rect x="265.394" y="128.975" width="0.922" height="0.738" fill="#fff" style=""/>
  <path d="M 288.392 114.104 C 288.388 114.092 288.384 114.08 288.379 114.068 C 288.24 113.704 287.962 113.455 287.642 113.455 L 263.378 113.455 C 263.062 113.455 262.787 113.698 262.646 114.055 C 262.579 114.229 262.545 114.414 262.545 114.601 L 261.617 146.053 C 261.671 146.112 261.725 146.171 261.78 146.23 C 261.818 146.27 261.855 146.31 261.893 146.35 L 262.821 114.601 C 262.821 114.511 262.833 114.421 262.857 114.334 C 262.857 114.333 262.857 114.331 262.858 114.33 C 262.937 114.041 263.141 113.836 263.378 113.836 L 287.642 113.836 C 287.698 113.836 287.755 113.848 287.807 113.871 C 288.024 113.963 288.184 114.233 288.197 114.558 C 288.198 114.572 288.198 114.586 288.198 114.601 L 289.312 145.124 C 289.345 145.081 289.378 145.037 289.41 144.994 C 289.422 144.978 289.434 144.962 289.445 144.947 C 289.455 144.934 289.465 144.921 289.474 144.909 C 289.513 144.857 289.551 144.805 289.588 144.753 L 289.588 144.752 L 288.474 114.601 C 288.475 114.432 288.447 114.264 288.392 114.104 Z M 266.852 150.073 C 267.013 150.157 267.175 150.238 267.339 150.316 L 267.34 150.317 C 267.372 150.332 267.404 150.347 267.436 150.362 C 267.437 150.362 267.437 150.362 267.437 150.362 C 267.441 150.365 267.445 150.367 267.449 150.368 C 267.472 150.379 267.494 150.389 267.516 150.399 L 283.249 150.399 C 283.269 150.39 283.29 150.38 283.311 150.37 C 283.323 150.365 283.335 150.359 283.348 150.353 C 283.393 150.331 283.438 150.31 283.483 150.288 C 283.537 150.261 283.592 150.235 283.646 150.208 C 283.735 150.164 283.823 150.119 283.912 150.073 L 266.852 150.073 Z" fill="#2f2e41" style=""/>
  <rect x="262.683" y="117.34" width="25.653" height="0.322" fill="#2f2e41" style=""/>
  <rect x="262.422" y="121.331" width="26.268" height="0.322" fill="#2f2e41" style=""/>
  <polygon points="266.676 127.581 266.399 127.581 267.327 113.6 267.603 113.6 266.676 127.581" fill="#2f2e41" style=""/>
  <polygon points="284.805 127.674 284.529 127.674 283.415 113.6 283.692 113.6 284.805 127.674" fill="#2f2e41" style=""/>
  <rect x="262.468" y="127.204" width="26.36" height="0.922" fill="#2f2e41" style=""/>
  <path d="M 275.696 126.695 L 275.972 126.695 C 276.253 126.695 276.48 126.922 276.48 127.203 C 276.48 127.203 276.48 127.203 276.48 127.203 L 275.189 127.203 C 275.189 127.203 275.189 127.203 275.189 127.203 C 275.189 126.922 275.416 126.695 275.696 126.695 Z" fill="#2f2e41" style=""/>
  <path d="M 266.32 148.976 C 265.903 149.393 265.935 149.567 265.776 149.471 C 265.587 149.357 265.4 149.24 265.215 149.119 C 265.158 149.081 265.1 149.043 265.042 149.004 C 264.991 148.97 264.939 148.935 264.888 148.9 C 264.706 148.775 264.526 148.648 264.349 148.517 C 264.165 148.382 263.985 148.243 263.807 148.101 C 263.575 147.917 263.347 147.727 263.124 147.531 C 262.709 147.169 262.311 146.787 261.93 146.388 C 261.917 146.375 261.905 146.363 261.893 146.35 C 261.855 146.31 261.818 146.27 261.78 146.23 L 261.969 145.547 L 262.201 135.604 L 262.215 132.608 L 262.216 132.332 L 262.422 127.999 L 262.423 127.722 L 262.543 121.881 L 262.544 121.653 L 262.546 121.331 L 261.899 120.703 L 262.841 117.662 L 262.842 117.34 L 262.857 114.334 L 262.858 114.089 C 263.349 113.641 264.045 113.554 264.895 113.632 C 264.938 113.637 264.981 113.641 265.024 113.645 L 265.036 113.836 L 265.057 114.175 L 265.057 114.176 L 265.224 116.865 L 265.224 116.866 L 265.254 117.34 L 265.274 117.662 L 265.326 118.505 L 264.573 121.331 L 264.593 121.653 L 264.739 123.989 L 264.758 124.311 L 264.8 124.975 L 264.971 127.722 L 264.988 127.999 L 265.023 128.569 L 265.067 129.275 L 265.072 129.357 L 265.092 129.679 L 265.15 130.604 L 265.165 130.862 L 265.238 132.038 L 265.248 132.195 L 265.252 132.259 L 265.257 132.332 L 265.264 132.452 L 265.274 132.608 L 265.309 133.168 L 265.323 133.403 L 265.337 133.624 L 265.347 133.784 L 265.363 134.042 L 265.376 134.242 L 265.408 134.768 L 265.422 134.989 L 265.446 135.374 L 265.46 135.604 L 265.462 135.632 L 265.493 136.133 L 265.507 136.355 L 265.517 136.526 L 265.545 136.965 L 265.561 137.222 L 265.578 137.498 L 265.592 137.72 L 265.644 138.554 L 265.659 138.812 L 265.663 138.864 L 265.676 139.085 L 265.742 140.144 L 265.747 140.229 L 265.758 140.402 L 265.761 140.451 L 265.832 141.594 L 265.841 141.734 L 265.846 141.815 L 265.857 141.992 L 265.917 142.959 L 265.931 143.181 L 265.94 143.324 L 265.956 143.582 L 266.002 144.325 L 266.016 144.546 L 266.038 144.915 L 266.055 145.172 L 266.087 145.689 L 266.101 145.911 L 266.137 146.504 L 266.153 146.762 L 266.164 147.055 L 266.172 147.276 L 266.32 148.976 Z" fill="#ccc" style=""/>
  <path d="M 289.449 145.714 C 289.436 145.729 289.423 145.743 289.41 145.758 C 289.378 145.795 289.345 145.833 289.312 145.87 C 289.311 145.87 289.311 145.871 289.311 145.871 L 289.309 145.872 L 289.309 145.873 C 288.312 146.999 287.181 147.999 285.943 148.853 C 285.939 148.856 285.935 148.86 285.93 148.862 C 285.915 148.873 285.9 148.884 285.885 148.894 C 285.774 148.97 285.662 149.045 285.549 149.119 C 285.494 149.155 285.438 149.191 285.383 149.226 L 285.383 149.227 C 285.382 149.227 285.382 149.227 285.382 149.227 L 285.381 149.227 L 285.38 149.228 L 285.377 149.229 C 285.376 149.23 285.375 149.231 285.373 149.231 C 285.331 149.259 285.289 149.286 285.245 149.313 C 285.232 149.321 285.219 149.329 285.206 149.337 C 285.184 149.352 285.161 149.366 285.137 149.38 C 285.114 149.395 285.091 149.409 285.068 149.423 C 285.039 149.44 285.01 149.458 284.98 149.476 L 284.982 149.323 L 284.985 149.119 L 284.998 148.182 L 285.045 147.434 L 285.32 143.006 L 285.364 142.305 L 285.373 142.148 L 285.497 140.155 L 285.54 139.471 L 285.636 137.93 L 285.679 137.23 L 285.721 136.553 L 285.723 136.526 L 285.727 136.463 L 285.729 136.424 L 285.778 135.638 L 285.78 135.604 L 285.815 135.048 L 285.864 134.242 L 285.896 133.736 L 285.931 133.168 L 285.96 132.713 L 285.966 132.608 L 285.983 132.332 L 285.984 132.321 L 286.091 130.599 L 286.119 130.15 L 286.148 129.679 L 286.168 129.357 L 286.209 128.699 L 286.253 127.999 L 286.27 127.722 L 286.331 126.74 L 286.365 126.193 L 286.399 125.645 L 286.449 124.844 L 286.482 124.311 L 286.502 123.989 L 286.646 121.653 L 286.653 121.552 L 286.667 121.331 L 286.714 120.576 L 285.707 118.848 L 285.781 117.662 L 285.801 117.34 L 286.013 113.937 L 286.019 113.836 L 286.031 113.645 C 286.939 113.546 287.68 113.619 288.197 114.089 L 288.212 117.34 L 288.213 117.662 L 288.507 121.222 L 288.507 121.331 L 288.508 121.653 L 288.628 127.722 L 288.629 127.999 L 288.833 132.332 L 288.835 132.608 L 288.94 135.604 L 288.945 136.526 L 289.445 144.947 L 289.449 145.714 Z" fill="#ccc" style=""/>
  <path d="M 285.549 149.119 C 285.494 149.155 285.438 149.191 285.383 149.226 L 285.383 149.227 C 285.382 149.227 285.382 149.227 285.382 149.227 L 285.381 149.227 L 285.38 149.228 L 285.377 149.229 C 285.376 149.23 285.375 149.231 285.373 149.231 C 285.331 149.259 285.289 149.286 285.245 149.313 C 285.232 149.321 285.219 149.329 285.206 149.337 C 285.184 149.352 285.161 149.366 285.137 149.38 C 285.114 149.395 285.091 149.409 285.068 149.423 C 285.039 149.44 285.01 149.458 284.98 149.476 C 284.917 149.514 284.853 149.552 284.789 149.59 C 284.766 149.604 284.742 149.617 284.719 149.631 C 284.695 149.645 284.672 149.658 284.648 149.671 L 284.648 149.673 L 284.645 149.673 L 284.644 149.674 L 284.643 149.675 C 284.578 149.712 284.513 149.749 284.448 149.785 L 284.448 149.786 C 284.395 149.815 284.343 149.844 284.29 149.872 C 284.165 149.941 284.038 150.007 283.912 150.073 C 283.823 150.119 283.735 150.164 283.646 150.208 C 283.592 150.235 283.537 150.261 283.483 150.288 C 283.438 150.31 283.393 150.331 283.348 150.353 C 283.335 150.359 283.323 150.365 283.311 150.37 C 283.29 150.38 283.269 150.39 283.249 150.399 C 283.232 150.407 283.215 150.415 283.198 150.423 C 283.157 150.442 283.116 150.461 283.075 150.48 C 283.029 150.5 282.983 150.521 282.937 150.541 C 282.765 150.618 282.59 150.693 282.415 150.764 C 281.79 151.02 281.151 151.241 280.502 151.426 C 280.472 151.435 280.441 151.443 280.41 151.452 C 280.132 151.53 279.852 151.601 279.571 151.666 C 279.078 151.779 278.581 151.872 278.08 151.945 C 278.079 151.945 278.077 151.945 278.076 151.945 C 278.017 151.954 277.956 151.962 277.897 151.971 C 277.891 151.972 277.886 151.972 277.88 151.973 C 277.88 151.973 277.879 151.973 277.878 151.973 C 277.812 151.982 277.745 151.991 277.678 151.999 C 277.674 152 277.669 152 277.665 152.001 C 277.602 152.008 277.54 152.015 277.477 152.022 C 277.41 152.03 277.342 152.037 277.275 152.044 L 277.274 152.044 C 277.171 152.054 277.068 152.064 276.965 152.072 C 276.963 152.072 276.961 152.073 276.96 152.073 C 276.919 152.076 276.878 152.079 276.837 152.082 C 276.356 152.121 275.871 152.139 275.382 152.139 C 274.851 152.139 274.325 152.117 273.804 152.073 C 273.802 152.073 273.8 152.072 273.799 152.072 C 273.688 152.063 273.577 152.053 273.466 152.042 C 273.437 152.039 273.408 152.036 273.379 152.033 C 273.373 152.032 273.368 152.032 273.362 152.031 C 273.354 152.03 273.345 152.029 273.335 152.028 C 273.331 152.028 273.326 152.027 273.321 152.026 C 273.283 152.022 273.244 152.018 273.205 152.013 C 273.162 152.008 273.118 152.003 273.075 151.998 C 273.032 151.992 272.988 151.987 272.945 151.981 C 272.936 151.98 272.926 151.979 272.917 151.977 C 272.885 151.973 272.854 151.969 272.822 151.965 C 272.807 151.963 272.792 151.96 272.778 151.958 C 272.747 151.954 272.718 151.95 272.687 151.945 C 272.687 151.945 272.685 151.945 272.684 151.945 C 271.737 151.808 270.801 151.597 269.886 151.314 C 269.836 151.298 269.786 151.283 269.737 151.267 C 269.722 151.263 269.707 151.258 269.692 151.253 C 269.563 151.212 269.435 151.169 269.308 151.125 C 269.132 151.065 268.957 151.002 268.784 150.936 C 268.736 150.917 268.689 150.899 268.642 150.881 C 268.548 150.844 268.454 150.807 268.361 150.769 C 268.202 150.704 268.043 150.637 267.887 150.568 L 267.886 150.568 L 267.886 150.567 C 267.762 150.513 267.639 150.457 267.516 150.399 C 267.494 150.389 267.472 150.379 267.449 150.368 C 267.445 150.367 267.441 150.365 267.437 150.362 C 267.437 150.362 267.437 150.362 267.436 150.362 C 267.404 150.347 267.372 150.332 267.34 150.317 L 267.339 150.316 C 267.175 150.238 267.013 150.157 266.852 150.073 C 266.652 149.97 266.455 149.864 266.258 149.753 C 266.096 149.662 265.935 149.568 265.776 149.471 C 265.587 149.357 265.4 149.24 265.215 149.119 L 285.549 149.119 Z" fill="#2f2e41" style=""/>
  <ellipse cx="268.727" cy="115.858" rx="0.093" ry="0.108" fill="#fff" style=""/>
  <ellipse cx="274.366" cy="115.992" rx="0.093" ry="0.108" fill="#fff" style=""/>
  <ellipse cx="277.847" cy="116.101" rx="0.093" ry="0.108" fill="#fff" style=""/>
  <circle cx="282.743" cy="129.791" r="0.093" fill="#fff" style=""/>
  <circle cx="277.105" cy="124.569" r="0.093" fill="#fff" style=""/>
  <circle cx="272.439" cy="129.327" r="0.093" fill="#fff" style=""/>
  <circle cx="271.65" cy="124.454" r="0.093" fill="#fff" style=""/>
  <circle cx="265.431" cy="123.48" r="0.093" fill="#fff" style=""/>
  <rect x="39.088" y="30.611" width="0.093" height="5.103" transform="matrix(0.999628, -0.027282, 0.027282, 0.999628, 246.646347, 112.993103)" fill="#b3b3b3" style=""/>
  <rect x="40.526" y="10.609" width="0.093" height="9.372" transform="matrix(0.99989, -0.014856, 0.014856, 0.99989, 247.313782, 112.517517)" fill="#b3b3b3" style=""/>
  <path d="M 284.898 132.205 L 283.587 132.205 C 283.527 132.205 283.47 132.231 283.432 132.277 C 283.414 132.273 283.395 132.271 283.376 132.271 C 283.137 132.271 282.988 132.53 283.107 132.737 C 283.163 132.834 283.265 132.893 283.376 132.893 C 283.423 132.893 283.47 132.882 283.512 132.861 L 283.534 133.13 L 283.621 134.192 C 283.625 134.205 283.63 134.218 283.637 134.23 C 283.673 134.295 283.742 134.336 283.816 134.336 L 284.669 134.336 C 284.743 134.336 284.812 134.295 284.848 134.23 C 284.855 134.218 284.86 134.205 284.864 134.192 L 285.093 132.47 C 285.134 132.338 285.036 132.205 284.898 132.205 Z M 283.376 132.804 C 283.206 132.804 283.099 132.619 283.185 132.471 C 283.224 132.402 283.298 132.36 283.376 132.36 C 283.381 132.36 283.384 132.361 283.388 132.361 C 283.379 132.397 283.381 132.435 283.391 132.47 L 283.485 132.775 C 283.452 132.794 283.415 132.804 283.376 132.804 Z" fill="#f2f2f2" style=""/>
  <path d="M 284.448 149.785 L 284.23 149.387 L 284.337 149.337 L 284.423 149.296 L 284.797 149.119 L 285.023 149.013 L 285.115 148.969 L 285.189 148.934 L 285.312 149.119 L 285.373 149.212 L 285.383 149.226 L 285.383 149.227 C 285.381 149.227 285.379 149.228 285.377 149.229 C 285.376 149.23 285.375 149.231 285.373 149.232 C 285.331 149.259 285.289 149.286 285.245 149.313 C 285.232 149.322 285.219 149.33 285.206 149.338 C 285.184 149.352 285.16 149.366 285.137 149.381 C 285.114 149.395 285.091 149.409 285.068 149.423 C 284.976 149.48 284.882 149.535 284.789 149.59 C 284.766 149.604 284.742 149.617 284.719 149.631 C 284.695 149.645 284.672 149.658 284.648 149.672 L 284.648 149.673 L 284.645 149.674 L 284.644 149.674 L 284.643 149.675 C 284.578 149.712 284.513 149.749 284.448 149.785 Z" fill="#2f2e41" style=""/>
  <g opacity="0.49" transform="matrix(0.046409, 0, 0, 0.046409, 256.771912, 113.455261)" style="">
    <path d="M790.59061,422.20046a8.03419,8.03419,0,0,0,.6184-.95087,6.51761,6.51761,0,0,1-1.0973.34453Z" transform="translate(-198.99963 -33.2301)" fill="#fff"/>
    <path d="M793.173,401.79945c-1.8-3.44629-3.82028-6.87161-4.54219-10.692-.72314-3.82735-.08829-7.75989.13243-11.64847.22077-3.88874-.05607-8.04522-2.305-11.22529-3.06823,9.71391-6.10867,20.41725-2.18361,29.81758,1.70268,4.07784,4.60465,7.55,6.47536,11.55342,1.70826,3.65585,2.40057,8.21267.459,11.64492,3.1665-1.27934,5.14875-4.90846,5.27172-8.40464C796.61743,408.95908,794.973,405.2459,793.173,401.79945Z" transform="translate(-198.99963 -33.2301)" fill="#fff"/>
  </g>
  <g opacity="0.49" transform="matrix(0.046409, 0, 0, 0.046409, 256.771912, 113.455261)" style="">
    <path d="M787.19721,435.20046a3.12262,3.12262,0,0,0,.24026-.36942,2.53278,2.53278,0,0,1-.42632.13385Z" transform="translate(-198.99963 -33.2301)" fill="#fff"/>
    <path d="M788.20052,427.2744a15.4328,15.4328,0,0,1-1.7647-4.154,18.70294,18.70294,0,0,1,.05145-4.52558,6.82408,6.82408,0,0,0-.89553-4.36117c-1.192,3.774-2.3733,7.93236-.84836,11.58451.66151,1.5843,1.789,2.93328,2.51576,4.48866a5.097,5.097,0,0,1,.17833,4.5242,3.66606,3.66606,0,0,0,2.04813-3.26531A8.83331,8.83331,0,0,0,788.20052,427.2744Z" transform="translate(-198.99963 -33.2301)" fill="#fff"/>
  </g>
  <path d="M 265.879 117.858 L 262.956 117.858 C 262.705 117.858 262.549 117.588 262.674 117.371 C 262.732 117.271 262.84 117.209 262.956 117.209 L 265.879 117.209 C 266.13 117.209 266.286 117.48 266.16 117.696 C 266.103 117.797 265.995 117.858 265.879 117.858 Z" fill="#2f2e41" style=""/>
  <path d="M 290.941 114.123 L 260.265 114.123 C 260.014 114.123 259.858 113.852 259.983 113.635 C 260.041 113.535 260.149 113.473 260.265 113.473 L 290.941 113.473 C 291.191 113.473 291.347 113.743 291.222 113.96 C 291.164 114.061 291.057 114.123 290.941 114.123 Z" fill="#2f2e41" style=""/>
  <path d="M 264.858 121.107 L 261.935 121.107 C 261.684 121.107 261.528 120.836 261.653 120.62 C 261.711 120.519 261.819 120.457 261.935 120.457 L 264.858 120.457 C 265.108 120.457 265.265 120.728 265.14 120.945 C 265.082 121.045 264.974 121.107 264.858 121.107 Z" fill="#2f2e41" style=""/>
  <path d="M 288.156 117.858 L 285.232 117.858 C 284.982 117.858 284.825 117.588 284.951 117.371 C 285.009 117.271 285.116 117.209 285.232 117.209 L 288.156 117.209 C 288.406 117.209 288.562 117.48 288.437 117.696 C 288.379 117.797 288.272 117.858 288.156 117.858 Z" fill="#2f2e41" style=""/>
  <path d="M 289.316 120.968 L 286.392 120.968 C 286.142 120.968 285.986 120.697 286.111 120.481 C 286.169 120.38 286.276 120.318 286.392 120.318 L 289.316 120.318 C 289.566 120.318 289.722 120.589 289.597 120.805 C 289.539 120.906 289.432 120.968 289.316 120.968 Z" fill="#2f2e41" style=""/>
  <rect x="15.558" y="10.191" width="0.093" height="9.372" transform="matrix(0.99989, -0.014856, 0.014856, 0.99989, 247.31723, 112.146545)" fill="#b3b3b3" style=""/>
  <rect x="16.486" y="20.958" width="0.093" height="9.372" transform="matrix(0.99989, -0.014856, 0.014856, 0.99989, 247.157379, 112.16153)" fill="#b3b3b3" style=""/>
  <rect x="15.465" y="28.894" width="0.093" height="5.103" transform="matrix(0.999628, -0.027282, 0.027282, 0.999628, 246.684402, 112.347992)" fill="#b3b3b3" style=""/>
  <path d="M 281.512 144.073 L 281.512 143.896 C 281.512 143.755 281.402 143.639 281.262 143.631 L 281.262 142.939 L 281.203 142.939 L 281.203 143.63 L 280.938 143.63 L 280.938 144.071 L 279.689 144.071 L 279.689 149.143 L 282.452 149.143 L 282.452 145.067 C 282.452 144.539 282.04 144.102 281.512 144.073 Z" fill="#2f2e41" style=""/>
  <rect x="280.145" y="144.792" width="0.368" height="0.294" fill="#fff" style=""/>
  <rect x="280.747" y="144.792" width="0.368" height="0.294" fill="#fff" style=""/>
  <rect x="281.349" y="144.792" width="0.368" height="0.294" fill="#fff" style=""/>
  <rect x="280.145" y="145.541" width="0.368" height="0.294" fill="#fff" style=""/>
  <rect x="280.747" y="145.541" width="0.368" height="0.294" fill="#fff" style=""/>
  <rect x="281.349" y="145.541" width="0.368" height="0.294" fill="#fff" style=""/>
  <rect x="280.145" y="146.291" width="0.368" height="0.294" fill="#fff" style=""/>
  <rect x="280.747" y="146.291" width="0.368" height="0.294" fill="#fff" style=""/>
  <rect x="281.349" y="146.291" width="0.368" height="0.294" fill="#fff" style=""/>
  <rect x="280.145" y="147.041" width="0.368" height="0.294" fill="#fff" style=""/>
  <rect x="280.747" y="147.041" width="0.368" height="0.294" fill="#fff" style=""/>
  <rect x="281.349" y="147.041" width="0.368" height="0.294" fill="#fff" style=""/>
  <rect x="280.145" y="147.791" width="0.368" height="0.294" fill="#fff" style=""/>
  <rect x="280.747" y="147.791" width="0.368" height="0.294" fill="#fff" style=""/>
  <rect x="281.349" y="147.791" width="0.368" height="0.294" fill="#fff" style=""/>
  <rect x="280.145" y="148.54" width="0.368" height="0.294" fill="#fff" style=""/>
  <rect x="280.747" y="148.54" width="0.368" height="0.294" fill="#fff" style=""/>
  <rect x="281.349" y="148.54" width="0.368" height="0.294" fill="#fff" style=""/>
  <path d="M 278.769 141.601 L 278.684 141.601 L 278.684 141.08 C 278.684 140.934 278.566 140.815 278.419 140.815 L 278.053 140.815 L 278.053 140.065 L 277.994 140.065 L 277.994 140.815 L 277.494 140.815 L 277.494 141.601 L 277.001 141.601 L 277.001 149.143 L 279.765 149.143 L 279.765 142.597 C 279.765 142.047 279.319 141.601 278.769 141.601 Z" fill="#2f2e41" style=""/>
  <rect x="277.788" y="142.197" width="1.191" height="0.088" fill="#fff" style=""/>
  <rect x="277.788" y="142.741" width="1.191" height="0.088" fill="#fff" style=""/>
  <rect x="277.788" y="143.285" width="1.191" height="0.088" fill="#fff" style=""/>
  <rect x="277.788" y="143.829" width="1.191" height="0.088" fill="#fff" style=""/>
  <rect x="277.788" y="144.373" width="1.191" height="0.088" fill="#fff" style=""/>
  <rect x="277.788" y="144.916" width="1.191" height="0.088" fill="#fff" style=""/>
  <rect x="277.788" y="145.46" width="1.191" height="0.088" fill="#fff" style=""/>
  <rect x="277.788" y="146.004" width="1.191" height="0.088" fill="#fff" style=""/>
  <rect x="277.788" y="146.548" width="1.191" height="0.088" fill="#fff" style=""/>
  <rect x="277.788" y="147.092" width="1.191" height="0.088" fill="#fff" style=""/>
  <rect x="277.788" y="147.636" width="1.191" height="0.088" fill="#fff" style=""/>
  <rect x="277.788" y="148.18" width="1.191" height="0.088" fill="#fff" style=""/>
  <rect x="277.905" y="140.977" width="0.368" height="0.294" fill="#fff" style=""/>
  <path d="M 290.041 144.563 L 290.041 144.995 C 289.974 145.081 289.906 145.166 289.837 145.25 C 289.823 145.269 289.808 145.287 289.794 145.305 C 289.771 145.332 289.748 145.36 289.726 145.387 C 289.719 145.396 289.711 145.405 289.703 145.414 C 289.665 145.46 289.627 145.505 289.588 145.55 C 289.588 145.55 289.589 145.551 289.588 145.551 C 289.551 145.596 289.512 145.64 289.474 145.685 C 289.453 145.709 289.432 145.733 289.41 145.758 C 289.378 145.795 289.345 145.833 289.312 145.87 C 289.311 145.87 289.311 145.871 289.311 145.871 L 289.309 145.873 L 289.309 144.563 L 290.041 144.563 Z" fill="#2f2e41" style=""/>
  <path d="M 290.995 143.661 C 290.873 143.848 290.749 144.033 290.62 144.215 C 290.62 144.215 290.62 144.215 290.619 144.216 C 290.543 144.325 290.465 144.434 290.386 144.542 C 290.335 144.61 290.284 144.679 290.232 144.747 C 290.181 144.815 290.129 144.883 290.077 144.949 C 290.065 144.965 290.053 144.98 290.041 144.995 C 289.974 145.081 289.906 145.166 289.837 145.25 C 289.823 145.269 289.808 145.287 289.794 145.305 C 289.771 145.332 289.748 145.36 289.726 145.387 C 289.718 145.396 289.711 145.405 289.703 145.414 C 289.665 145.46 289.627 145.505 289.588 145.55 C 289.588 145.55 289.589 145.551 289.588 145.551 C 289.551 145.596 289.512 145.64 289.474 145.685 C 289.453 145.709 289.432 145.733 289.41 145.758 L 287.895 145.758 C 287.558 145.758 287.285 145.485 287.285 145.148 L 287.285 144.27 C 287.285 143.934 287.558 143.661 287.895 143.661 L 290.995 143.661 Z" fill="#2f2e41" style=""/>
  <path d="M 291.796 136.149 C 291.703 136.117 291.605 136.101 291.507 136.101 L 291.258 136.101 C 291.167 136.101 291.076 136.114 290.99 136.141 C 290.614 136.259 290.359 136.607 290.358 137.001 L 290.358 144.322 C 290.358 144.349 290.359 144.376 290.362 144.403 C 290.366 144.449 290.374 144.496 290.385 144.542 C 290.464 144.434 290.543 144.325 290.619 144.216 C 290.62 144.216 290.62 144.216 290.62 144.215 C 290.748 144.033 290.873 143.848 290.995 143.661 C 291.06 143.56 291.125 143.459 291.189 143.356 C 291.648 142.619 292.055 141.851 292.407 141.056 L 292.407 137.001 C 292.406 136.615 292.161 136.273 291.796 136.149 Z" fill="#2f2e41" style=""/>
  <polygon points="280.971 149.763 280.339 149.461 281.206 146.82 282.138 147.266 280.971 149.763" fill="#ffb6b6" style=""/>
  <path d="M 285.206 149.338 C 285.16 149.366 285.114 149.395 285.068 149.423 C 284.976 149.48 284.882 149.535 284.789 149.59 C 284.742 149.617 284.695 149.645 284.648 149.672 L 284.648 149.673 L 284.645 149.674 L 284.644 149.674 L 284.573 149.692 L 284.47 149.421 L 284.423 149.296 L 284.356 149.119 L 284.234 148.795 L 283.589 147.092 L 284.591 146.845 L 284.629 146.999 L 284.648 147.075 L 284.998 148.496 L 285.07 148.786 L 285.072 148.795 L 285.115 148.969 L 285.152 149.119 L 285.194 149.287 L 285.206 149.338 Z" fill="#ffb6b6" style=""/>
  <path d="M 282.648 138.285 C 282.836 138.589 283.232 138.688 283.541 138.509 C 283.571 138.491 283.599 138.47 283.625 138.447 L 285.623 139.593 L 285.536 138.417 L 283.653 137.509 C 283.442 137.297 283.114 137.254 282.857 137.405 C 282.558 137.585 282.461 137.973 282.64 138.271 C 282.643 138.276 282.646 138.28 282.648 138.285 Z" fill="#ffb6b6" style=""/>
  <path d="M 284.764 139.162 L 285.117 139.377 L 286.703 140.344 C 287.141 140.618 287.718 140.485 287.992 140.047 C 288.11 139.853 288.151 139.623 288.109 139.401 L 287.404 135.88 C 287.293 135.292 286.686 134.941 286.121 135.138 C 285.658 135.301 285.401 135.795 285.534 136.268 L 286.271 138.767 L 285.142 138.24 L 284.764 139.162 Z" fill="#f9a826" style=""/>
  <path d="M 291.266 142.634 C 291.266 142.632 291.265 142.627 291.264 142.62 L 291.262 142.614 C 291.259 142.598 291.255 142.579 291.251 142.559 C 291.156 142.088 291.035 141.624 290.887 141.168 C 290.799 140.888 290.683 140.619 290.54 140.363 C 290.535 140.355 290.53 140.346 290.525 140.338 L 290.508 140.31 L 290.364 140.363 L 290.358 140.365 L 288.164 141.169 L 287.53 141.402 L 287.509 141.409 L 287.401 141.85 L 285.884 141.654 L 284.648 141.494 L 284.293 141.448 C 283.982 141.407 283.668 141.493 283.421 141.686 C 283.163 141.886 282.996 142.181 282.958 142.505 C 282.953 142.54 282.951 142.576 282.949 142.611 L 282.842 146.61 L 282.842 146.615 L 282.892 146.715 L 283.929 148.796 L 284.648 148.796 L 285.072 148.795 L 285.417 148.795 L 284.7 146.981 L 284.716 146.956 C 284.853 146.747 284.883 146.485 284.798 146.249 L 284.879 146.015 C 285.047 145.533 284.967 145.301 284.867 145.007 C 284.777 144.769 284.724 144.518 284.71 144.263 L 284.693 143.932 C 285.114 144.006 285.507 144.088 285.884 144.171 C 286.01 144.198 286.136 144.226 286.259 144.254 C 286.611 144.332 286.952 144.408 287.285 144.471 C 287.96 144.6 288.606 144.678 289.27 144.629 C 289.283 144.628 289.296 144.627 289.309 144.626 C 289.471 144.613 289.633 144.592 289.798 144.563 C 289.89 144.546 289.983 144.527 290.076 144.505 C 290.102 144.499 290.129 144.492 290.155 144.485 C 290.227 144.466 290.297 144.438 290.362 144.403 C 290.455 144.351 290.541 144.288 290.619 144.216 C 290.62 144.216 290.62 144.216 290.62 144.215 C 290.748 144.033 290.873 143.848 290.995 143.661 C 291.06 143.56 291.125 143.459 291.189 143.356 C 291.282 143.102 291.317 142.844 291.266 142.634 Z" fill="#2f2e41" style=""/>
  <path d="M 291.282 141.882 C 291.275 141.853 291.266 141.823 291.257 141.793 C 291.183 141.572 291.097 141.355 291 141.143 C 290.89 140.901 290.759 140.643 290.602 140.363 C 290.527 140.227 290.445 140.087 290.358 139.94 C 290.314 139.867 290.269 139.792 290.222 139.716 C 290.22 139.713 290.218 139.709 290.216 139.706 L 290.203 139.683 L 288.032 139.974 L 287.223 140.082 L 287.175 140.485 L 287.163 140.585 C 287.163 140.585 287.163 140.585 287.163 140.585 L 287.131 140.857 L 287.131 140.858 L 287.088 141.217 L 287.084 141.216 L 285.884 141.061 L 284.648 140.901 L 283.984 140.815 C 283.673 140.775 283.359 140.86 283.112 141.054 C 282.854 141.253 282.687 141.548 282.649 141.872 C 282.645 141.905 282.642 141.938 282.641 141.971 L 282.014 143.456 C 281.639 144.343 281.401 145.283 281.306 146.242 L 280.847 147.711 L 280.912 147.717 L 281.886 147.808 L 282.143 147.831 L 282.709 147.005 C 282.773 146.911 282.835 146.814 282.892 146.715 C 282.986 146.552 283.069 146.384 283.142 146.212 L 284.367 143.297 C 284.461 143.313 284.555 143.329 284.648 143.343 C 285.077 143.413 285.489 143.47 285.884 143.514 C 287.169 143.657 288.28 143.668 289.27 143.547 C 289.548 143.513 289.817 143.468 290.076 143.413 C 290.172 143.393 290.265 143.372 290.358 143.348 C 290.38 143.343 290.401 143.338 290.423 143.333 C 290.812 143.232 291.124 142.941 291.251 142.559 C 291.325 142.341 291.336 142.106 291.282 141.882 Z" fill="#2f2e41" style=""/>
  <ellipse cx="286.665" cy="131.582" rx="1.502" ry="1.535" fill="#ffb6b6" style=""/>
  <path d="M 290.231 139.768 C 290.229 139.75 290.226 139.733 290.222 139.716 C 290.186 139.528 290.094 139.343 290.004 139.164 C 289.919 138.993 289.837 138.831 289.804 138.671 C 289.771 138.513 289.791 138.354 289.81 138.201 C 289.83 138.035 289.851 137.863 289.803 137.696 C 289.561 136.845 289.228 136.023 288.81 135.243 C 288.595 134.543 287.99 134.033 287.263 133.941 C 287.304 133.863 287.321 133.775 287.312 133.688 C 287.301 133.573 287.244 133.468 287.154 133.397 C 287.068 133.327 286.958 133.295 286.848 133.307 L 286.15 133.386 C 285.917 133.415 285.751 133.626 285.778 133.86 C 285.782 133.894 285.79 133.928 285.802 133.961 C 285.154 134.786 284.821 135.538 284.79 136.249 C 284.787 136.331 284.787 136.414 284.792 136.496 C 284.807 136.761 284.864 137.022 284.963 137.269 C 285.079 137.554 285.234 137.822 285.425 138.064 C 285.464 138.114 285.504 138.162 285.546 138.209 C 285.585 138.256 285.629 138.304 285.677 138.355 L 285.799 138.547 L 285.913 138.725 L 286.521 140.128 L 286.83 140.118 L 286.873 140.427 L 286.883 140.498 L 287.084 141.216 L 287.099 141.27 L 287.373 141.14 L 289.009 140.363 L 290.233 139.782 L 290.231 139.768 Z" fill="#f9a826" style=""/>
  <path d="M 284.981 137.262 C 285.121 137.604 285.317 137.919 285.561 138.196 C 285.603 138.246 285.647 138.295 285.693 138.344 L 285.931 138.717 C 286.807 138.061 287.516 135.476 287.516 135.476 L 286.528 135.284 L 284.981 137.262 Z" opacity="0.2" style="isolation: isolate;"/>
  <path d="M 284.383 133.261 C 284.563 133.57 284.464 133.966 284.16 134.154 C 284.13 134.172 284.098 134.187 284.066 134.2 L 284.136 136.502 L 283.139 135.875 L 283.225 133.785 C 283.138 133.499 283.255 133.19 283.509 133.033 C 283.807 132.853 284.194 132.948 284.374 133.246 C 284.377 133.25 284.38 133.255 284.383 133.261 Z" fill="#ffb6b6" style=""/>
  <path d="M 284.223 135.633 L 283.127 135.789 L 283.174 138.059 C 283.18 138.389 283.355 138.692 283.638 138.86 C 283.988 139.065 284.431 139.015 284.726 138.736 L 287.314 136.247 C 287.692 135.888 287.724 135.296 287.387 134.899 C 287.055 134.507 286.467 134.457 286.075 134.789 C 286.067 134.795 286.06 134.802 286.053 134.808 C 286.027 134.831 286.003 134.855 285.98 134.881 L 284.271 136.847 L 284.223 135.633 Z" fill="#f9a826" style=""/>
  <path d="M 281.172 149.332 L 280.489 149.004 L 280.382 148.953 L 280.21 149.373 L 279.015 149.636 C 278.802 149.683 278.719 149.943 278.866 150.105 C 278.894 150.136 278.929 150.16 278.968 150.176 L 280.136 150.653 L 280.507 150.319 L 280.416 150.767 L 280.856 150.947 L 281.338 149.412 L 281.172 149.332 Z" fill="#2f2e41" style=""/>
  <path d="M 290.683 130.916 C 290.428 130.618 290.307 130.223 290.103 129.885 C 289.899 129.547 289.544 129.245 289.169 129.324 C 288.91 129.378 288.71 129.606 288.609 129.86 C 288.508 130.115 288.489 130.396 288.471 130.67 C 288.477 130.105 288.105 129.558 287.592 129.378 C 287.08 129.197 286.467 129.398 286.144 129.852 C 285.853 129.583 285.407 129.573 285.105 129.83 C 284.816 130.088 284.753 130.578 284.965 130.907 C 285.177 131.235 285.635 131.357 285.972 131.175 L 286.091 131.285 C 286.024 131.519 286.154 131.796 286.373 131.884 C 286.55 131.956 286.8 131.944 286.866 132.13 C 286.912 132.26 286.826 132.398 286.734 132.498 C 286.642 132.598 286.532 132.701 286.521 132.839 C 286.504 133.047 286.72 133.194 286.916 133.237 C 287.388 133.343 287.911 133.125 288.184 132.708 C 288.189 132.7 288.195 132.692 288.201 132.684 C 288.509 132.29 288.642 131.785 288.567 131.29 C 288.552 131.194 288.567 131.122 288.634 131.1 C 288.921 131.001 289.725 131.208 289.968 131.395 C 290.211 131.582 290.406 131.829 290.64 132.028 C 290.875 132.227 291.173 132.381 291.471 132.326 C 291.709 132.283 291.912 132.11 292.048 131.901 C 292.185 131.693 292.263 131.449 292.334 131.208 C 291.806 131.512 291.085 131.385 290.683 130.916 Z" fill="#2f2e41" style=""/>
  <path d="M 285.943 148.853 L 285.943 148.864 L 285.93 148.862 C 285.915 148.873 285.9 148.884 285.885 148.894 C 285.774 148.97 285.662 149.045 285.549 149.119 C 285.494 149.155 285.438 149.191 285.383 149.226 L 285.383 149.227 C 285.382 149.227 285.382 149.227 285.381 149.227 L 285.38 149.228 L 285.377 149.229 C 285.376 149.23 285.375 149.231 285.373 149.232 L 285.373 140.652 C 285.373 140.404 285.29 140.202 285.187 140.201 L 277.461 140.201 C 277.358 140.202 277.275 140.404 277.274 140.652 L 277.274 152.044 C 277.171 152.054 277.068 152.064 276.965 152.072 C 276.963 152.072 276.961 152.073 276.96 152.073 C 276.919 152.076 276.878 152.079 276.837 152.083 L 276.836 152.083 C 276.812 152.037 276.788 151.991 276.764 151.945 L 276.764 140.067 C 276.764 139.999 276.766 139.929 276.771 139.861 C 276.778 139.768 276.789 139.674 276.806 139.582 C 276.884 139.151 277.062 138.859 277.263 138.858 L 285.385 138.858 C 285.414 138.858 285.443 138.864 285.47 138.876 C 285.509 138.893 285.545 138.919 285.575 138.95 C 285.616 138.992 285.651 139.04 285.679 139.091 C 285.778 139.266 285.849 139.527 285.874 139.831 C 285.874 139.833 285.875 139.836 285.875 139.839 C 285.881 139.914 285.885 139.991 285.884 140.067 L 285.89 141.062 L 285.894 141.655 L 285.907 143.516 L 285.912 144.177 L 285.943 148.853 Z" fill="#2f2e41" style=""/>
  <polygon points="279.866 136.099 279.327 138.463 278.985 138.84 278.737 138.84 279.758 134.54 279.809 135.27 279.809 135.271 279.866 136.099" fill="#2f2e41" style=""/>
  <path d="M 282.452 138.515 L 279.299 138.495 L 279.02 138.494 L 278.82 138.492 L 278.587 138.491 L 278.585 138.491 C 278.552 138.491 278.519 138.504 278.495 138.528 L 278.103 138.921 C 278.094 138.929 278.087 138.939 278.082 138.95 C 278.079 138.953 278.078 138.957 278.076 138.961 C 278.039 139.046 278.101 139.142 278.194 139.143 L 282.278 139.143 C 282.328 139.143 282.374 139.114 282.395 139.069 L 282.427 138.999 L 282.493 138.858 L 282.568 138.698 C 282.576 138.681 282.58 138.663 282.58 138.644 C 282.58 138.573 282.523 138.516 282.452 138.515 Z" fill="#2f2e41" style=""/>
  <path d="M 282.427 138.999 L 282.395 139.069 C 282.373 139.114 282.328 139.143 282.279 139.143 L 278.194 139.143 C 278.101 139.142 278.039 139.046 278.076 138.961 C 278.077 138.957 278.079 138.954 278.082 138.95 L 282.427 138.999 Z" opacity="0.17" style="isolation: isolate;"/>
  <polygon points="279.809 135.27 279.809 135.271 278.934 138.84 278.737 138.84 279.758 134.54 279.809 135.27" opacity="0.17" style="isolation: isolate;"/>
  <path d="M 280.882 135.925 L 279.644 126.508 C 279.64 126.472 279.621 126.44 279.593 126.419 L 278.741 125.352 L 278.664 125.293 C 278.636 125.272 278.6 125.262 278.565 125.267 L 278.437 125.284 C 278.363 125.293 278.311 125.361 278.321 125.434 L 279.604 135.191 L 279.604 135.192 L 279.682 135.788 L 279.775 136.497 L 279.775 136.498 L 279.92 137.601 C 279.925 137.639 279.946 137.673 279.978 137.694 C 280.01 137.716 280.049 137.723 280.086 137.714 L 280.168 137.694 C 280.199 137.685 280.226 137.667 280.245 137.641 L 280.281 137.589 L 280.298 137.565 L 280.858 136.019 C 280.878 135.992 280.886 135.958 280.882 135.925 Z" fill="#2f2e41" style=""/>
  <path d="M 278.741 125.352 L 280.298 137.565 L 280.281 137.589 L 280.245 137.64 C 280.226 137.667 280.199 137.685 280.168 137.693 L 280.086 137.714 C 280.008 137.733 279.931 137.68 279.92 137.601 L 278.321 125.434 C 278.311 125.361 278.363 125.293 278.437 125.283 L 278.565 125.267 C 278.601 125.262 278.636 125.272 278.664 125.293 L 278.741 125.352 Z" opacity="0.17" style="isolation: isolate;"/>
  <polygon points="278.787 125.701 279.612 126.881 280.594 134.352 280.063 135.409 278.787 125.701" fill="#f9a826" style=""/>
  <path d="M 291.259 140.766 C 291.258 140.933 291.156 141.082 291 141.143 C 290.963 141.156 290.925 141.165 290.887 141.168 C 290.877 141.169 290.866 141.169 290.856 141.169 L 290.077 141.169 L 290.077 144.949 C 290.065 144.965 290.053 144.98 290.041 144.995 C 289.974 145.081 289.906 145.166 289.837 145.25 C 289.823 145.269 289.808 145.287 289.794 145.305 C 289.771 145.332 289.748 145.36 289.726 145.387 C 289.718 145.396 289.711 145.405 289.703 145.414 C 289.665 145.46 289.627 145.505 289.588 145.55 C 289.588 145.55 289.589 145.551 289.588 145.551 C 289.551 145.596 289.512 145.64 289.474 145.685 C 289.404 145.645 289.347 145.586 289.312 145.513 C 289.311 145.513 289.311 145.512 289.311 145.512 C 289.31 145.51 289.31 145.509 289.309 145.508 C 289.283 145.454 289.27 145.394 289.27 145.334 L 289.27 141.169 L 287.524 141.169 C 287.472 141.169 287.421 141.159 287.373 141.14 C 287.251 141.091 287.161 140.985 287.131 140.858 L 287.131 140.857 C 287.109 140.766 287.121 140.669 287.164 140.585 C 287.163 140.585 287.163 140.585 287.164 140.585 C 287.181 140.548 287.206 140.515 287.234 140.485 C 287.234 140.485 287.234 140.485 287.235 140.484 C 287.311 140.407 287.415 140.363 287.524 140.363 L 290.856 140.363 C 291.078 140.363 291.258 140.543 291.259 140.766 Z" fill="#2f2e41" style=""/>
  <path d="M 291.232 133 C 290.534 133 289.969 133.565 289.969 134.263 C 289.969 134.867 290.397 135.387 290.99 135.502 L 290.99 137.568 L 291.796 137.568 L 291.796 133 L 291.232 133 Z" fill="#2f2e41" style=""/>
  <path d="M 286.128 129.784 C 286.473 130.242 286.924 131.349 286.76 131.899" fill="#fd6584" style=""/>
</svg>