<svg width="553" height="554" viewBox="0 0 553 554" fill="none" xmlns="http://www.w3.org/2000/svg">
<g clip-path="url(#clip0_0_1)">
<path d="M353.506 554H113.057C86.9896 554 65.7816 532.792 65.7816 506.724V47.2759C65.7816 21.208 86.9896 0 113.057 0H353.506C379.574 0 400.782 21.208 400.782 47.2759V506.724C400.782 532.792 379.574 554 353.506 554Z" fill="#f8f8f8"/>
<path d="M400.782 169C399.679 169 398.782 169.897 398.782 171V235C398.782 236.103 399.679 237 400.782 237C401.885 237 402.782 236.103 402.782 235V171C402.782 169.897 401.885 169 400.782 169Z" fill="#f8f8f8"/>
<path d="M396.282 47.2762V506.716C396.282 529.406 378.622 547.966 356.292 549.406H356.282C355.952 549.426 355.622 549.446 355.282 549.456C354.692 549.486 354.102 549.496 353.502 549.496C353.502 549.496 351.302 549.336 347.282 549.036C343.222 548.736 337.312 548.286 329.942 547.696C327.732 547.526 325.402 547.336 322.942 547.136C318.042 546.736 312.662 546.296 306.892 545.796C304.592 545.606 302.212 545.396 299.782 545.186C287.362 544.116 273.452 542.866 258.782 541.446C256.302 541.216 253.802 540.976 251.282 540.726C250.622 540.656 249.952 540.596 249.282 540.526C238.822 539.496 228.072 538.386 217.282 537.206C216.612 537.136 215.942 537.066 215.282 536.996C196.692 534.946 178.032 532.716 160.572 530.316C147.142 528.476 134.422 526.536 123.002 524.526C119.282 523.866 115.702 523.206 112.282 522.536C111.612 522.406 110.942 522.276 110.282 522.136C86.1121 517.296 70.282 512.076 70.282 506.716V47.2762C70.282 23.6463 89.4321 4.49626 113.062 4.49626H138.602C142.682 4.49626 145.962 7.67625 146.312 11.7463C146.342 12.0163 146.372 12.2862 146.422 12.5563C147.162 16.6463 150.912 19.4963 155.072 19.4963H311.492C315.652 19.4963 319.402 16.6463 320.142 12.5563C320.192 12.2862 320.222 12.0163 320.252 11.7463C320.602 7.67625 323.882 4.49626 327.962 4.49626H353.502C377.132 4.49626 396.282 23.6463 396.282 47.2762V47.2762Z" fill="white"/>
<path d="M64.7818 121C63.6788 121 62.7818 121.897 62.7818 123V139C62.7818 140.103 63.6788 141 64.7818 141C65.8848 141 66.7818 140.103 66.7818 139V123C66.7818 121.897 65.8848 121 64.7818 121Z" fill="#f8f8f8"/>
<path d="M64.7818 169C63.6788 169 62.7818 169.897 62.7818 171V202C62.7818 203.103 63.6788 204 64.7818 204C65.8848 204 66.7818 203.103 66.7818 202V171C66.7818 169.897 65.8848 169 64.7818 169Z" fill="#f8f8f8"/>
<path d="M64.7818 213C63.6788 213 62.7818 213.897 62.7818 215V246C62.7818 247.103 63.6788 248 64.7818 248C65.8848 248 66.7818 247.103 66.7818 246V215C66.7818 213.897 65.8848 213 64.7818 213Z" fill="#f8f8f8"/>
<path d="M136.282 11.5002H101.282C100.177 11.5002 99.2818 12.3956 99.2818 13.5002V14.5002C99.2818 15.6047 100.177 16.5002 101.282 16.5002H136.282C137.386 16.5002 138.282 15.6047 138.282 14.5002V13.5002C138.282 12.3956 137.386 11.5002 136.282 11.5002Z" fill="#f8f8f8"/>
<path d="M334.282 16.5002C336.491 16.5002 338.282 14.7093 338.282 12.5002C338.282 10.291 336.491 8.50015 334.282 8.50015C332.073 8.50015 330.282 10.291 330.282 12.5002C330.282 14.7093 332.073 16.5002 334.282 16.5002Z" fill="#f8f8f8"/>
<path d="M345.282 16.5002C347.491 16.5002 349.282 14.7093 349.282 12.5002C349.282 10.291 347.491 8.50015 345.282 8.50015C343.073 8.50015 341.282 10.291 341.282 12.5002C341.282 14.7093 343.073 16.5002 345.282 16.5002Z" fill="#f8f8f8"/>
<path d="M356.282 16.5002C358.491 16.5002 360.282 14.7093 360.282 12.5002C360.282 10.291 358.491 8.50015 356.282 8.50015C354.073 8.50015 352.282 10.291 352.282 12.5002C352.282 14.7093 354.073 16.5002 356.282 16.5002Z" fill="#f8f8f8"/>
<path d="M118.691 157.425C129.41 157.425 138.1 148.919 138.1 138.425C138.1 127.932 129.41 119.425 118.691 119.425C107.971 119.425 99.2818 127.932 99.2818 138.425C99.2818 148.919 107.971 157.425 118.691 157.425Z" fill="#F3F3F3"/>
<path d="M274.284 131.925H169.813C166.229 131.925 163.313 129.009 163.313 125.425C163.313 121.841 166.229 118.925 169.813 118.925H274.284C277.868 118.925 280.784 121.841 280.784 125.425C280.784 129.009 277.868 131.925 274.284 131.925Z" fill="#fafafa"/>
<path d="M106.337 351.878C104.67 351.878 103.313 353.234 103.313 354.901C103.313 356.569 104.67 357.925 106.337 357.925H215.76C217.427 357.925 218.784 356.569 218.784 354.901C218.784 353.234 217.427 351.878 215.76 351.878H106.337Z" fill="#f8f8f8"/>
<path d="M355.813 153.925H169.813C166.229 153.925 163.313 151.009 163.313 147.425C163.313 143.841 166.229 140.925 169.813 140.925H355.813C359.397 140.925 362.313 143.841 362.313 147.425C362.313 151.009 359.397 153.925 355.813 153.925Z" fill="#fafafa"/>
<path d="M143.532 61.9254H103.782C101.025 61.9254 98.7816 59.6823 98.7816 56.9254C98.7816 54.1686 101.025 51.9254 103.782 51.9254H143.532C146.289 51.9254 148.532 54.1686 148.532 56.9254C148.532 59.6823 146.289 61.9254 143.532 61.9254Z" fill="#fafafa"/>
<path d="M355.313 52.4254H315.563C313.078 52.4254 311.063 54.4402 311.063 56.9254C311.063 59.4107 313.078 61.4254 315.563 61.4254H355.313C357.799 61.4254 359.813 59.4107 359.813 56.9254C359.813 54.4402 357.799 52.4254 355.313 52.4254Z" fill="#F3F3F3"/>
<path d="M298.313 61.9254H258.563C255.806 61.9254 253.563 59.6823 253.563 56.9254C253.563 54.1686 255.806 51.9254 258.563 51.9254H298.313C301.07 51.9254 303.313 54.1686 303.313 56.9254C303.313 59.6823 301.07 61.9254 298.313 61.9254Z" fill="#fafafa"/>
<path d="M149.282 337.193H111.282C104.389 337.193 98.7816 331.586 98.7816 324.693V312.277C98.7816 305.384 104.389 299.777 111.282 299.777H149.282C156.174 299.777 161.782 305.384 161.782 312.277V324.693C161.782 331.586 156.174 337.193 149.282 337.193Z" fill="#f8f8f8"/>
<path d="M349.813 265.632H111.282C104.389 265.632 98.7816 260.025 98.7816 253.132V198.425C98.7816 191.533 104.389 185.925 111.282 185.925H349.813C356.706 185.925 362.313 191.533 362.313 198.425V253.132C362.313 260.025 356.706 265.632 349.813 265.632Z" fill="#F3F3F3"/>
<path d="M348.282 337.193H310.282C303.389 337.193 297.782 331.586 297.782 324.693V312.277C297.782 305.384 303.389 299.777 310.282 299.777H348.282C355.174 299.777 360.782 305.384 360.782 312.277V324.693C360.782 331.586 355.174 337.193 348.282 337.193Z" fill="#f8f8f8"/>
<path d="M247.813 337.193H209.813C202.921 337.193 197.313 331.586 197.313 324.693V312.277C197.313 305.384 202.921 299.777 209.813 299.777H247.813C254.706 299.777 260.313 305.384 260.313 312.277V324.693C260.313 331.586 254.706 337.193 247.813 337.193V337.193Z" fill="#f8f8f8"/>
<path d="M162.813 392.425H132.813V420.425H162.813V392.425Z" fill="#f8f8f8"/>
<path d="M162.813 432.425H145.813V460.425H162.813V432.425Z" fill="#f8f8f8"/>
<path d="M201.813 432.425H171.813V460.425H201.813V432.425Z" fill="#f8f8f8"/>
<path d="M201.813 472.425H171.813V500.425H201.813V472.425Z" fill="#f8f8f8"/>
<path d="M240.813 432.425H210.813V460.425H240.813V432.425Z" fill="#f8f8f8"/>
<path d="M201.813 392.425H171.813V420.425H201.813V392.425Z" fill="#f8f8f8"/>
<path d="M240.813 392.425H210.813V420.425H240.813V392.425Z" fill="#f8f8f8"/>
<path d="M318.813 392.425H288.813V420.425H318.813V392.425Z" fill="#f8f8f8"/>
<path d="M240.813 472.425H210.813V500.425H240.813V472.425Z" fill="#f8f8f8"/>
<path d="M279.813 392.425H249.813V420.425H279.813V392.425Z" fill="#f8f8f8"/>
<path d="M334.313 432.425H314.813V460.425H334.313C337.075 460.425 339.313 458.187 339.313 455.425V437.425C339.313 434.664 337.075 432.425 334.313 432.425Z" fill="#f8f8f8"/>
<path d="M162.813 472.425H156.813C154.052 472.425 151.813 474.664 151.813 477.425V495.425C151.813 498.187 154.052 500.425 156.813 500.425H162.813V472.425Z" fill="#f8f8f8"/>
<path d="M279.813 472.425H249.813V500.425H279.813V472.425Z" fill="#f8f8f8"/>
<path d="M356.813 392.425H327.813V420.425H356.813C359.575 420.425 361.813 418.187 361.813 415.425V397.425C361.813 394.664 359.575 392.425 356.813 392.425Z" fill="#f8f8f8"/>
<path d="M305.813 472.848C305.2 472.579 304.526 472.425 303.813 472.425H288.813V500.425H303.813C304.526 500.425 305.2 500.272 305.813 500.003V472.848Z" fill="#f8f8f8"/>
<path d="M279.813 432.425H249.813V460.425H279.813V432.425Z" fill="#f8f8f8"/>
<path d="M305.813 432.425H288.813V460.425H305.813V432.425Z" fill="#f8f8f8"/>
<path d="M136.813 432.425H126.313C123.552 432.425 121.313 434.664 121.313 437.425V455.425C121.313 458.187 123.552 460.425 126.313 460.425H136.813V432.425Z" fill="#f8f8f8"/>
<path d="M123.813 392.425H103.813C101.052 392.425 98.8133 394.664 98.8133 397.425V415.425C98.8133 418.187 101.052 420.425 103.813 420.425H123.813V392.425Z" fill="#f8f8f8"/>
<path d="M472.551 503.424C474.617 503.553 475.759 500.987 474.196 499.491L474.041 498.872C474.061 498.823 474.082 498.773 474.102 498.724C476.192 493.742 483.272 493.777 485.344 498.766C487.182 503.194 489.523 507.63 490.099 512.312C490.358 514.379 490.242 516.484 489.783 518.512C494.091 509.102 496.358 498.826 496.358 488.491C496.358 485.895 496.216 483.299 495.925 480.709C495.686 478.59 495.357 476.484 494.931 474.398C492.625 463.121 487.632 452.38 480.431 443.409C476.969 441.516 474.082 438.558 472.338 435.012C471.711 433.733 471.22 432.357 470.988 430.956C471.382 431.008 472.473 425.007 472.176 424.639C472.725 423.806 473.708 423.392 474.308 422.579C477.29 418.535 481.399 419.241 483.544 424.736C488.126 427.049 488.17 430.884 485.359 434.573C483.57 436.92 483.324 440.095 481.755 442.608C481.916 442.814 482.084 443.015 482.246 443.221C485.207 447.019 487.768 451.101 489.927 455.39C489.316 450.624 490.217 444.882 491.753 441.18C493.501 436.963 496.778 433.411 499.663 429.765C503.129 425.386 510.237 427.297 510.847 432.849C510.853 432.902 510.859 432.956 510.865 433.01C510.436 433.252 510.016 433.508 509.606 433.78C507.267 435.327 508.075 438.954 510.847 439.381L510.91 439.391C510.755 440.935 510.49 442.466 510.103 443.971C513.804 458.286 505.813 463.5 494.401 463.735C494.149 463.864 493.904 463.993 493.652 464.116C494.808 467.371 495.732 470.71 496.416 474.095C497.03 477.085 497.456 480.108 497.695 483.144C497.992 486.974 497.966 490.823 497.643 494.647L497.663 494.511C498.483 490.3 500.77 486.366 504.089 483.641C509.035 479.578 516.022 478.082 521.358 474.817C523.926 473.245 527.217 475.276 526.769 478.254L526.747 478.396C525.953 478.719 525.178 479.094 524.428 479.514C524 479.755 523.58 480.012 523.17 480.284C520.83 481.831 521.639 485.457 524.411 485.885L524.474 485.895C524.519 485.901 524.558 485.908 524.603 485.914C523.24 489.15 521.341 492.154 518.964 494.744C516.65 507.241 506.708 508.426 496.074 504.787H496.068C494.905 509.851 493.206 514.798 491.023 519.513H473.003C472.938 519.313 472.88 519.106 472.822 518.906C474.488 519.01 476.168 518.913 477.808 518.609C476.471 516.969 475.134 515.315 473.797 513.675C473.765 513.642 473.739 513.61 473.713 513.578C473.035 512.738 472.351 511.905 471.672 511.065L471.672 511.064C471.63 508.487 471.939 505.918 472.551 503.424L472.551 503.424V503.424Z" fill="#f8f8f8"/>
<path d="M-26 519.567C-26 520.227 -25.47 520.757 -24.8099 520.757H525.48C526.14 520.757 526.67 520.227 526.67 519.567C526.67 518.907 526.14 518.377 525.48 518.377H-24.8099C-25.47 518.377 -26 518.907 -26 519.567Z" fill="#F2F2F2"/>
</g>
<defs>
<clipPath id="clip0_0_1">
<rect width="552.81" height="554" fill="white"/>
</clipPath>
</defs>
</svg>
